<svg width="1253" height="736" viewBox="0 0 1253 736" fill="none" xmlns="http://www.w3.org/2000/svg">
<path opacity="0.4" d="M650.872 727.127L604.098 727.773L341.619 591.078L338.205 589.31L0 413.078V388.091L367.703 579.587L371.117 581.355L650.872 727.127ZM469.035 549.059L465.621 547.292L0 304.735V329.755L436.259 556.98L439.673 558.748L760.056 725.631L806.83 724.985L469.035 549.059ZM567.021 516.764L563.606 514.996L79.8226 262.988L76.4085 261.22L0 221.412V246.399L47.0469 270.909L50.461 272.677L534.313 524.685L537.727 526.452L916.082 723.524L962.856 722.878L567.021 516.764ZM0 79.7192L243.019 206.284L246.433 208.052L730.285 460.059L733.699 461.827L1217.55 713.835L1219.39 714.787L1223.7 692.01L762.992 452.139L759.578 450.371L275.794 198.363L272.38 196.595L0 54.7326V79.7192ZM857.632 418.075L373.78 166.067L370.366 164.3L54.9677 0H6.96485L341.004 173.988L344.419 175.756L828.271 427.764L831.685 429.532L1233.67 638.909L1237.97 616.132L861.115 419.843L857.632 418.075ZM1335 0H1286.99L1347.7 31.6157L1352 8.8388L1335 0ZM77.0913 678.276L73.7455 676.508L0 638.127V663.114L44.3156 686.197L47.7297 687.964L136.361 734.13L183.135 733.484L77.0913 678.276ZM175.077 645.98L171.663 644.212L0 554.771V579.757L142.301 653.901L145.716 655.669L292.319 732.023L339.093 731.377L175.077 645.98ZM273.063 613.685L269.717 611.917L0 471.448V496.435L240.287 621.606L243.701 623.373L448.208 729.881L494.982 729.235L273.063 613.685ZM0 721.45V736L27.2448 735.626L0 721.45ZM145.033 238.58L148.447 240.347L632.299 492.355L635.713 494.123L1071.97 721.348L1118.75 720.702L665.075 484.434L661.661 482.666L177.808 230.659L174.394 228.891L0 138.055V163.042L145.033 238.58ZM830.865 12.4423L834.28 14.2101L1304.95 259.351L1309.26 236.574L863.641 4.52139L860.227 2.75363L854.969 0H806.966L830.865 12.4423ZM1323.46 160.662L1015.02 0H967.021L1319.22 183.439L1323.46 160.662ZM1175.01 0H1127.01L1333.43 107.527L1337.73 84.7505L1175.01 0ZM1252.92 290.593L1249.51 288.825L765.655 36.817L762.241 35.0492L694.983 0H646.98L732.88 44.7379L736.294 46.5057L1220.15 298.513L1223.56 300.281L1290.68 335.228L1294.98 312.452L1252.92 290.593ZM958.964 387.513L955.55 385.746L471.766 133.738L468.352 131.97L214.954 0H166.952L438.922 141.659L442.336 143.426L926.188 395.434L929.602 397.202L1247.87 562.964L1252.17 540.187L958.964 387.513ZM1056.95 355.218L1053.54 353.45L569.684 101.442L566.269 99.6745L374.941 0H326.938L536.908 109.363L540.322 111.131L1024.17 363.139L1027.59 364.906L1262.14 487.052L1266.44 464.275L1056.95 355.218ZM1154.94 322.888L1151.52 321.12L667.669 69.1466L664.255 67.3788L534.996 0H486.993L634.962 77.0675L638.376 78.8353L1122.23 330.843L1125.64 332.611L1276.48 411.174L1280.78 388.397L1154.94 322.888Z" fill="#6C79D0" fill-opacity="0.75"/>
</svg>
