<svg xmlns="http://www.w3.org/2000/svg" xmlns:xlink="http://www.w3.org/1999/xlink" viewBox="0 0 1920 1080"><defs><style>.cls-1,.cls-14,.cls-16,.cls-17,.cls-18,.cls-5{fill:none;}.cls-2{fill:#f9d51b;}.cls-3{fill:#2d4899;}.cls-4{clip-path:url(#clip-path);}.cls-5{stroke:#234188;}.cls-14,.cls-16,.cls-17,.cls-18,.cls-5,.cls-7{stroke-miterlimit:10;}.cls-16,.cls-5{stroke-width:100px;}.cls-6{fill:#fff;}.cls-11,.cls-7{fill:#bb2127;}.cls-17,.cls-7{stroke:#231f20;stroke-width:7px;}.cls-8{clip-path:url(#clip-path-2);}.cls-9{clip-path:url(#clip-path-3);}.cls-10{fill:#d3b02a;}.cls-12{fill:#3194ac;}.cls-13{clip-path:url(#clip-path-4);}.cls-14{stroke:#127492;stroke-width:80px;}.cls-15{clip-path:url(#clip-path-5);}.cls-16{stroke:#253f89;}.cls-18{stroke:#000;stroke-width:8px;}</style><clipPath id="clip-path"><polygon class="cls-1" points="-3.17 615.22 381.42 639.79 445 0.69 -3.17 1 -3.17 615.22"/></clipPath><clipPath id="clip-path-2"><polygon class="cls-1" points="0 641.11 377.28 665.21 338.39 1080 0 1080 0 641.11"/></clipPath><clipPath id="clip-path-3"><polygon class="cls-1" points="407.53 643.05 1565.55 717.04 1609.8 251.82 1186.25 0.63 471.25 2.58 407.53 643.05"/></clipPath><clipPath id="clip-path-4"><polygon class="cls-1" points="406.04 667.37 364.99 1080 1534.28 1080 1566.36 742.67 406.04 667.37"/></clipPath><clipPath id="clip-path-5"><polygon class="cls-1" points="1248.76 0.97 1920 398.53 1920 -0.97 1248.76 0.97"/></clipPath><image id="image" width="1182" height="1182" xlink:href="../half.png"/><image id="image-2" width="3269" height="2064" xlink:href="../pow%202.png"/></defs><title>Artboard 1</title><g id="Layer_3" data-name="Layer 3"><polygon class="cls-2" points="1598 716.31 1938.16 738.38 1928.01 432.93 1642.9 264.99 1598 716.31"/><polygon class="cls-3" points="1595.29 744.88 1563.41 1080 1920 1080 1920 766.27 1595.29 744.88"/><use transform="translate(1560.7 1091.67) rotate(-84.83) scale(0.3)" xlink:href="#image"/></g><g id="Layer_10" data-name="Layer 10"><polygon class="cls-3" points="0 614.22 384.59 638.79 448.17 -0.32 0 0 0 614.22"/><g class="cls-4"><line class="cls-5" x1="71.82" y1="-130.79" x2="384.59" y2="638.79"/><line class="cls-5" x1="-164.39" y1="30.7" x2="384.59" y2="638.79"/><line class="cls-5" x1="-219.83" y1="356.25" x2="384.59" y2="638.79"/><line class="cls-5" x1="384.59" y1="638.79" x2="325.52" y2="-185.39"/></g><image width="6543" height="4180" transform="matrix(-0.18, 0.2, -0.2, -0.18, 1201.51, -450.89)" xlink:href="../awan%201.png"/><polygon class="cls-6" points="248.76 630.11 436.17 120.3 447.36 7.77 220.91 628.33 248.76 630.11"/><polyline class="cls-7" points="384.59 638.79 248.76 628.33 310.21 460.8 437.1 110.89 384.59 638.79"/></g><g id="Layer_9" data-name="Layer 9"><polygon class="cls-2" points="0 641.11 377.28 665.21 338.39 1080 0 1080 0 641.11"/><g class="cls-8"><use transform="translate(274.91 306.18) rotate(48.19) scale(0.56)" xlink:href="#image"/></g></g><g id="Layer_7" data-name="Layer 7"><polygon class="cls-2" points="407.7 640.48 1565.72 714.46 1609.97 249.24 1186.42 -1.95 471.41 0 407.7 640.48"/><g class="cls-9"><path class="cls-1" d="M-5099.59,596.68l1846.52,83.93c7.27-155.05,23.29-309.25,49-461.58,6.25-38.11,13.47-76,20.82-113.92l5.84-28.35c2-9.44,3.8-18.91,6-28.32,4.18-18.82,8.13-37.71,12.63-56.46,17.42-75.14,36.91-149.77,59-223.62a3755.86,3755.86,0,0,1,158.5-434.1,3772.4,3772.4,0,0,1,210.65-411.65,3810,3810,0,0,1,564.24-732.74,3824,3824,0,0,1,724.31-576A3781,3781,0,0,1-602-2769.71q110.31-34.61,222.49-62.72,112.22-27.81,226-48.92c4.72-.94,9.48-1.72,14.22-2.57l14.24-2.51,14.23-2.53,7.12-1.27,7.13-1.17,28.53-4.68c4.76-.77,9.51-1.61,14.27-2.32l14.3-2.15,28.6-4.34,28.65-4c19.08-2.78,38.24-5,57.37-7.47,9.56-1.28,19.16-2.26,28.74-3.36l28.76-3.26,28.8-2.87,14.4-1.45c4.8-.53,9.62-.86,14.42-1.3l28.85-2.53,7.21-.64,7.22-.54,14.44-1.07,28.89-2.16,28.92-1.78,14.46-.91c4.82-.31,9.65-.49,14.47-.74l28.95-1.44,7.24-.37,7.25-.26,14.49-.52,29-1.06c38.67-1,77.36-1.78,116.09-1.64l29,0,29.06.41c19.37.12,38.75.85,58.13,1.3,9.69.18,19.38.66,29.07,1l29.08,1.12,27.36,1.43c9.12.4,18.21,1,27.31,1.63A2872,2872,0,0,1,1198-2876.77a2830.28,2830.28,0,0,1,415.33,124.95c33.7,13.12,67.22,26.72,100.43,41.07s66.12,29.37,98.8,44.91,65,31.92,97,48.72l24,12.74,23.83,13c8,4.28,15.83,8.8,23.72,13.23l11.84,6.65c4,2.2,7.84,4.53,11.77,6.79a2863.63,2863.63,0,0,1,359.07,245,2880.28,2880.28,0,0,1,318.28,297.14c3.07,3.34,6.19,6.65,9.24,10l9.11,10.12c6.07,6.76,12.24,13.43,18.18,20.3l18,20.45,17.76,20.67q35.29,41.51,69.15,84.22,33.69,42.82,65.85,86.8l16,22.06,15.7,22.25,3.93,5.55,3.86,5.61,7.71,11.22,7.73,11.21,7.58,11.3a2864.12,2864.12,0,0,1,214.66,378.08A2839.6,2839.6,0,0,1,3320.65-897.1,2827.84,2827.84,0,0,1,3411-472.91a2863.52,2863.52,0,0,1,24.67,434.6c-.14,9.1-.48,18.22-.69,27.33l-.35,13.67L3434,16.36,3433.51,30c-.19,4.51-.3,9.29-.61,13.32l-1.51,25.15L3430,93.67l-2.17,25-2,25.06c-.26,4.18-.83,8.32-1.28,12.48l-1.39,12.47q-10.59,99.84-30.47,197.8t-49,193.28q-29.2,95.27-67.42,187.4A2087.09,2087.09,0,0,1,3089,1099a2108,2108,0,0,1-251.28,311,2114.72,2114.72,0,0,1-305.7,258.33,2098.56,2098.56,0,0,1-348.15,195.51,2079.64,2079.64,0,0,1-377.78,125.38q-97.11,22.18-196.2,35l-24.79,2.92-12.38,1.51-6.2.76c-2.06.29-4.13.47-6.21.65-16.59,1.46-33.17,3.07-49.75,4.66q-25,1.57-49.91,3.41l-50,2.21c-2.09.08-4.17.22-6.26.27l-6.27.09-12.55.19-25.09.47-6.27.14c-2.09.07-4.18.07-6.28,0l-12.57-.13-25.14-.18-12.57,0-12.59-.44-25.19-.84-12.59-.38c-2-.08-4.37-.06-6.12-.22l-5.62-.36q-11.22-.71-22.45-1.31l-5.62-.3c-1.87-.11-3.75-.16-5.61-.36l-11.17-1q-11.17-1-22.35-1.82c-1.86-.14-3.73-.28-5.57-.52l-5.56-.64-11.11-1.24-11.12-1.19-5.57-.57c-1.86-.17-3.7-.42-5.54-.69-29.49-4-58.94-8.08-88-13.72l-21.86-4q-10.85-2.38-21.7-4.68l-10.87-2.26c-1.81-.36-3.62-.75-5.41-1.22l-5.38-1.32q-10.77-2.62-21.57-5.15l-5.4-1.25c-1.81-.39-3.57-1-5.36-1.41l-10.69-2.89-21.43-5.64q-10.59-3.18-21.23-6.28l-10.64-3.06c-1.77-.5-3.55-1-5.29-1.61l-5.26-1.72q-10.53-3.42-21.08-6.74l-5.28-1.65c-1.77-.53-3.49-1.21-5.23-1.81l-10.44-3.67-20.91-7.23q-10.34-4-20.7-7.84l-10.37-3.84c-1.75-.61-3.45-1.31-5.15-2l-5.12-2.1q-10.25-4.18-20.53-8.27l-5.14-2-5.07-2.24-10.14-4.43-10.17-4.38-5.09-2.17c-1.7-.71-3.39-1.44-5.05-2.25a1483.21,1483.21,0,0,1-303.6-183c-1.49-1.11-3-2.23-4.4-3.42l-4.33-3.51-8.68-7-8.71-7-4.37-3.46-4.25-3.61q-8.49-7.22-17.05-14.36l-4.28-3.57c-1.45-1.17-2.85-2.39-4.22-3.64l-8.33-7.42-16.75-14.72q-8.13-7.65-16.33-15.21l-8.22-7.55c-1.39-1.23-2.7-2.55-4-3.86l-4-3.91q-8-7.8-16-15.54c-1.32-1.3-2.71-2.55-4-3.89l-3.88-4-7.8-8-7.83-8c-2.61-2.65-5.27-5.25-7.76-8q-7.57-8.19-15.23-16.32l-3.83-4.06c-1.26-1.36-2.59-2.67-3.79-4.09l-7.39-8.37q-7.41-8.34-14.9-16.62l-14.42-17c-9.85-11.16-18.89-23-28.37-34.46L138,1472.5l-3.39-4.43-6.78-8.86-6.82-8.82-3.43-4.41c-1.17-1.45-2.28-2.94-3.35-4.45q-6.54-9-13.16-18l-6.63-9-6.33-9.18q-6.34-9.16-12.78-18.27c-1.1-1.5-2.1-3.06-3.11-4.62l-3.06-4.66-6.13-9.3-6.18-9.27c-1-1.55-2.1-3.07-3.08-4.64l-2.93-4.74Q44.95,1340.42,39,1331c-4.08-6.2-7.69-12.69-11.51-19l-11.4-19.11q-5.4-9.74-10.87-19.42l-5.5-9.66c-1.81-3.24-3.46-6.56-5.21-9.82q-5.18-9.84-10.45-19.62c-1.82-3.24-3.41-6.58-5.05-9.9l-5-9.94-5-9.92-2.52-5c-.87-1.64-1.58-3.35-2.38-5q-4.66-10.06-9.43-20.09c-1.56-3.35-3.24-6.66-4.73-10l-4.44-10.17q-4.45-10.15-9-20.27c-2.86-6.82-5.58-13.69-8.43-20.51l-4.27-10.23c-.69-1.71-1.48-3.39-2.1-5.13l-2-5.18c-5.18-13.83-10.83-27.49-15.53-41.49l-7.47-20.85q-3.39-10.55-6.87-21.05l-3.5-10.5c-.62-1.74-1.14-3.51-1.65-5.28l-1.57-5.31q-3.17-10.61-6.41-21.18l-1.64-5.29-1.43-5.34L-129.2,946l-3-10.66-1.49-5.33c-.51-1.77-1-3.54-1.42-5.34q-2.6-10.75-5.3-21.49l-2.72-10.72c-.86-3.59-1.57-7.21-2.38-10.81q-2.37-10.81-4.83-21.6c-.4-1.8-.86-3.59-1.21-5.4l-1-5.44-2.1-10.87c-23.14-115.82-31.56-234.68-26.73-354.66,0-4,.33-6.87.52-10.11l.57-9.54.5-9.55c.2-3.17.56-6.32.82-9.49l1.56-19q1.13-9.41,2.1-18.84l.47-4.71c.13-1.58.43-3.13.63-4.69l1.3-9.35c.87-6.24,1.49-12.52,2.66-18.69s2-12.39,2.94-18.6c1.17-6.15,2.38-12.3,3.48-18.46l.83-4.62c.25-1.55.55-3.09.92-4.6l2-9.16,1.92-9.18c.33-1.53.6-3.07,1-4.59l1.12-4.54q2.25-9.09,4.32-18.21l4.82-18.06,1.17-4.52c.38-1.52.76-3,1.24-4.51l2.67-9,2.59-9c.44-1.49.84-3,1.29-4.49l1.46-4.43q2.91-8.87,5.66-17.79l6.14-17.62A997.36,997.36,0,0,1-64.58,51.83l2.13-4.17,2.31-4.07,4.57-8.18,4.49-8.22c1.54-2.72,3.2-5.37,4.77-8.07L-41.57,11c1.6-2.69,3-5.46,4.78-8.07q5-7.93,9.9-15.95,20.27-31.6,42.53-62A1020.62,1020.62,0,0,1,229-287.4,1009.46,1009.46,0,0,1,493.55-427.55a996.6,996.6,0,0,1,293.12-55.53l4.72-.24c1.57-.07,3.14-.19,4.72-.17l9.48-.12,9.48-.19,4.74-.13c1.58,0,3.17,0,4.75.05q9.53.15,19,.14c3.17-.07,6.36.15,9.54.25l9.56.33,9.56.26c1.67,0,2.59.16,3.93.23l3.72.25c5,.33,9.94.4,14.82,1,2.46.22,4.91.42,7.37.61l3.69.25,3.65.44c2.43.29,4.87.57,7.3.82l3.66.36c1.23.08,2.43.26,3.63.45,19.39,2.34,38.44,5.71,57.21,9.89s37.24,9.19,55.42,15.05A614.14,614.14,0,0,1,1142-408.45q25.32,13.76,49.43,29.92t46.65,34.67a632.94,632.94,0,0,1,83.15,81.94,630,630,0,0,1,66.54,95.56,621,621,0,0,1,47.28,105.05q9.33,27.14,15.89,55t10.66,56.39a638.43,638.43,0,0,1,5.63,116.68c0,1.42-.13,1.77-.17,2.71l-.16,2.4c-.12,1.59-.11,3.21-.24,4.8s-.33,3.14-.45,4.72-.14,3.17-.41,4.7-.37,3.1-.51,4.66c-.09.77-.09,1.56-.23,2.33l-.36,2.28c-.22,1.53-.41,3.06-.57,4.6-.05.78-.25,1.52-.37,2.27l-.39,2.26c-.27,1.51-.41,3-.68,4.53s-.63,3-.89,4.47c-.39,3-1.28,5.9-1.79,8.88-.22,1.5-.68,2.93-1,4.38s-.69,2.92-1,4.39-.84,2.87-1.2,4.31l-.55,2.18a15.89,15.89,0,0,1-.59,2.15A332.84,332.84,0,0,1,1444,273.47a14.23,14.23,0,0,1-.86,2.06l-.92,2c-.6,1.36-1.13,2.75-1.72,4.12s-1.32,2.68-1.93,4l-.89,2.05c-.28.7-.69,1.33-1,2-.69,1.33-1.35,2.67-2,4a17,17,0,0,1-1,2l-1.07,2c-.72,1.31-1.36,2.67-2,4s-1.52,2.6-2.24,3.92l-1,2c-.32.68-.79,1.29-1.16,1.94q-1.18,1.92-2.28,3.9a16.69,16.69,0,0,1-1.16,2l-1.23,1.9c-.81,1.28-1.55,2.6-2.35,3.89-3.41,5-6.63,10.17-10.32,15a297.66,297.66,0,0,1-23.27,28.54q-1.61,1.68-3.13,3.42a22.9,22.9,0,0,1-1.61,1.66l-1.63,1.65-1.6,1.68a23,23,0,0,1-1.62,1.66q-1.71,1.57-3.33,3.23l-1.63,1.65-1.73,1.55c-1.14,1.05-2.27,2.11-3.37,3.2s-2.35,2-3.48,3.07l-1.72,1.56a16.85,16.85,0,0,1-1.74,1.53,363,363,0,0,1-29.33,22.58A350.93,350.93,0,0,1,1298.11,432c-1.29.8-2.71,1.35-4,2s-2.69,1.38-4,2.08-2.76,1.22-4.12,1.87-2.68,1.39-4.09,1.91c-2.78,1.14-5.46,2.54-8.28,3.55-1.39.55-2.76,1.16-4.13,1.76s-2.81,1-4.2,1.56c-2.74,1.22-5.63,2-8.4,3.09-1.37.59-2.83.93-4.24,1.4s-2.82.94-4.21,1.46-2.87.79-4.29,1.22-2.81,1-4.27,1.28c-2.89.67-5.68,1.72-8.6,2.28a317.68,317.68,0,0,1-35.11,6.75,338.49,338.49,0,0,1-36.6,2.54l-2.35.1c-.78,0-1.57-.05-2.36-.05q-2.37-.06-4.74,0c-1.58.09-3.19-.07-4.79-.13s-3.2-.11-4.81-.11a4.92,4.92,0,0,1-1.18-.09l-.75-.06a6.37,6.37,0,0,0-.76,0c-.25,0-.48-.09-.71-.12a9.78,9.78,0,0,0-1.43-.06,6.78,6.78,0,0,0-1.34-.2,45.83,45.83,0,0,1-5-.76,5.63,5.63,0,0,0-.59,0c-.19,0-.37-.13-.56-.17a8.6,8.6,0,0,0-1.13-.19c-.69-.31-1.47-.29-2.14-.59-.75-.06-1.37-.5-2.11-.53a4.48,4.48,0,0,0-1-.38c-.17-.06-.37,0-.52-.13a3.06,3.06,0,0,0-.49-.22,3.8,3.8,0,0,0-.51-.15,1,1,0,0,1-.5-.18,3.5,3.5,0,0,0-1-.35,7.16,7.16,0,0,0-1-.44,5,5,0,0,1-.51-.16,3.1,3.1,0,0,0-.47-.26,64,64,0,0,1-15.82-9.85,72.06,72.06,0,0,1-13.66-15.32,62.89,62.89,0,0,1-7.85-16.61,4.4,4.4,0,0,0-.21-.5,3,3,0,0,1-.1-.52,7.14,7.14,0,0,0-.33-1c0-.72-.4-1.36-.44-2.09-.29-.66-.18-1.42-.5-2.09a4,4,0,0,0-.13-1.09c0-.18-.15-.34-.12-.54a5.25,5.25,0,0,0,0-.56,3.57,3.57,0,0,0-.11-.55,1.06,1.06,0,0,1-.07-.56,4.36,4.36,0,0,0-.16-1.14c-.07-.38,0-.8-.07-1.18,0-.2-.07-.39-.12-.59s0-.41,0-.62c-.26-1.6-.09-3.37-.2-5.23a6.84,6.84,0,0,0,0-1.43c0-.48.12-1,.1-1.5,0-.25,0-.5,0-.76l-116.33-5.34-3.72-.25c-4.69-.37-8.37-.88-10.93-1.3s-4.38-.86-5.47-1.15l-.69-.19-.47-.14-.33-.11.32.13.38.17.49.23c.71.33,1.62.81,2.54,1.36a32.41,32.41,0,0,1,4.67,3.32c1,.87,1.18,1.2.68.58a26.9,26.9,0,0,1-2.62-4.07,32.37,32.37,0,0,1-2.21-5c-.31-.9,0-.51.44,3,.07.55.12,1,.16,1.44.08.66.13,1.26.17,1.78.07.72.13,1.51.16,2.16l.06,1.24.06,1.27.07,2.86V403l-.07,3.62-.08,1.9c-1.66,36.32,13.91-306.4,7.37-162.36.58-10.44,1.94-15.38,2.31-16.77.22-.76.26-.77.1-.41a20.62,20.62,0,0,1-1.07,2.17l-.39.67-.42.67-.45.69-.46.66a22.49,22.49,0,0,1-1.5,1.87c-.82.89-.64.53.58-.32a27.49,27.49,0,0,1,5.26-2.81,13.89,13.89,0,0,1,1.52-.54c.1,0-.25.08-1.71.31a61.78,61.78,0,0,1-7.2.62l-1.37,0-1.47,0h-1.66L942,233l-2,0c57.17,2.61-130.68-5.93,127.74,5.81l1.91.09,1.78.13c2.42.21,4.08.41,5.68.65l1.08.18.88.16.81.16.73.16c.26.05.82.19,1,.23l.67.19.26.08.07,0-.06,0c-.15-.06-.26-.1-.67-.29s-.7-.34-1.21-.62l-.65-.39-.72-.45-.62-.42-.62-.46-.49-.39-.43-.36-.48-.45c-.06-.06-.09-.11,0,0s.18.21.38.47a19.13,19.13,0,0,1,1.41,2.26c.28.51.48.91.72,1.44s.38.86.54,1.3.2.57.25.76v0c0,.07,0,0,0,0l0-.21-.12-.6-.15-1-.08-.67-.08-.73-.09-.89-.08-1.06c0-.59-.1-1.64-.11-2.39l0-1.5v-1.58c0-.59,0-1.12,0-1.68s0-1.34,0-2c1.07-23.58-8.86,195.47-4.69,103.68q0,.86-.12,1.8a48,48,0,0,1-1.24,8.31l-.08.3-.11.36c0-.05,0,0-.07.24.06-.18.1-.26.08-.2l.1-.25.09-.18a17.2,17.2,0,0,1,1.53-2.59,12,12,0,0,1,1.3-1.56l0,0-.1.09s0,.05-.24.19l-.38.28a17.64,17.64,0,0,1-2.53,1.44,17,17,0,0,1-1.72.67l.14,0c.07,0-.12,0,.07,0a6.12,6.12,0,0,1,.67-.12c.49-.09,1-.16,1.31-.18,0,0,.6-.07.92-.1s.68-.06,1-.07l1.12-.06,1.43-.06H1081c.61,0,1.19,0,1.73.08l-83.83-3.8c-.6,0-1.23-.09-1.9-.17-.48,0-.83-.06-1.31-.12a24.25,24.25,0,0,1-5-1l.14.06c.06,0-.07,0,0,0l.27.12.23.11c.31.15.24.13.64.34l.28.17.4.25.28.19.36.25.28.2.25.2.24.21.14.12.18.16.06.07a11,11,0,0,1-.66-.92l-.19-.3-.21-.38-.17-.3-.21-.43-.14-.29-.16-.37-.13-.3-.09-.24c-.23-.61-.1-.62.13,1.31l.1.91c0,.35.05.66.05.92s.07,1,.08,1.4,0,.87,0,1.3q0,1,0,1.92c1.34-29.2-3.08,67.84,3-65.13,0-1.05.2-2.63.26-3.28,0-.37.16-1.13.18-1.32s.09-.6.17-1l.13-.68.14-.56c0-.07,0-.2.1-.37l0-.08c0-.1,0-.14,0,0s0,0,0,0c-.13.32-.08.19-.25.55l-.15.27-.19.33-.24.38-.22.32-.19.27c-.11.14-.18.24-.23.29a7.17,7.17,0,0,1-.5.56s0,0,0,0l.09-.07.11-.09.16-.12a5.89,5.89,0,0,1,.58-.38,1.9,1.9,0,0,1,.28-.17l.33-.19.4-.19.35-.17.29-.12.28-.11.31-.1c.14,0,0,0,0,0l-.1,0-.36.07-.59.09-.71.07c-.37,0-.7.06-1,.07s-1,.07-1.36.07H992.4c-.64,0-1.24,0-1.78-.06,105.62,4.79,30.23,1.36,54.33,2.48a23.81,23.81,0,0,1,4.12.63c.67.18.46.15.16,0a8.69,8.69,0,0,1-1.26-.73,7.08,7.08,0,0,1-.85-.7,2.05,2.05,0,1,0,.16.21,7.79,7.79,0,0,1,.74,1.27,8.32,8.32,0,0,1,.41,1,9.34,9.34,0,0,1-.19-1.35,7.45,7.45,0,0,1-.07-1c0-.53-.06-1-.05-1.41s0-1.26,0-1.76c.46-10.25-3.61,80.17-2,42.89a18.34,18.34,0,0,1-.58,3.69c-.1.28,0-.16.3-.59a6.31,6.31,0,0,1,.81-1.13c.18-.2.22-.2,0,0a7,7,0,0,1-1.29.72c-.5.22-.76.25-.36.17a20.29,20.29,0,0,1,4.1-.21c8.42.38-64.16-2.88-34.46-1.57-.52-.05-1-.1-1.37-.17s-.72-.13-.83-.15c-.31-.08-.28-.06-.46-.12s-.18-.06.07,0l.25.12.37.22a3.84,3.84,0,0,1,.77.61s-.07-.08-.18-.25a2.51,2.51,0,0,1-.18-.27l-.19-.34a3,3,0,0,1-.17-.37s-.1-.26-.1-.26l-.06-.15,0,.13c0,.11,0,.2.08.49,0,.07.07.65.07.85,0,.56,0,.79,0,1.48-1.11,25.1,1.43-31.81,1.24-26.95a13.6,13.6,0,0,1,.31-2.1c.09-.32.08-.23,0-.11a4.35,4.35,0,0,1-.34.6,3.51,3.51,0,0,1-.39.49,5.25,5.25,0,0,1,.62-.39,3.34,3.34,0,0,1,.62-.26c.12,0,0,0-.42.06-.14,0-.56.07-.91.08s-.95,0-1.6,0c43.22,1.94,13,.6,23,1.09a8.65,8.65,0,0,1,.86.16c.35.1.22.08,0,0a3.37,3.37,0,0,1-.63-.4c-.37-.31-.13-.19.14.33a5.52,5.52,0,0,1,.23.54,4.54,4.54,0,0,1-.12-1c-.38,7.39.77-18.51-.78,15.92a11,11,0,0,1-.16,1.41,2.81,2.81,0,0,1-.11.48c0,.1,0-.05,0-.08a3.39,3.39,0,0,1,.4-.61c.1-.12.13-.11-.06,0a2.82,2.82,0,0,1-.63.31c-.19.07,0,0,.66-.06-6.06-.32,15.39.62-12.83-.63a7.16,7.16,0,0,1-1.2-.17c-.27-.07,0,0,.19.15a1.7,1.7,0,0,1,.22.17c.11.1.06.07.05.05a2.07,2.07,0,0,1-.33-.58c0-.09,0-.07,0,0a5.94,5.94,0,0,1,.08,1c-.17,3.44.95-21.4.56-11.56,0-.33.11-.4.06-.31a1.81,1.81,0,0,1-.32.45,1.44,1.44,0,0,1,.49-.28s.06,0-.11,0c3.88.21-9.85-.34,7.87.43,1.17.09,1,.23.67,0s-.18-.23,0,.07c0,.08.12.3.08.16a5.34,5.34,0,0,1,0-1l-43.58,958.83a959,959,0,0,0,1000.53-895.4c4.48-73,1.52-134-8-202.1A967.7,967.7,0,0,0,1567.49-504.7a967.4,967.4,0,0,0-368.88-152.41c-64-12.42-137.19-17.13-185.06-16.31A978.63,978.63,0,0,0,413.18-461.85a975.24,975.24,0,0,0-215.54,238A971.82,971.82,0,0,0,121.53-80.46,975.82,975.82,0,0,0,45,233c-3.78,53.55-3.29,89.06-.77,135a992.09,992.09,0,0,0,682.07,880.88A987.76,987.76,0,0,0,854,1281.44a992.42,992.42,0,0,0,129.24,15.23,1015.66,1015.66,0,0,0,106.74-.12A1009.11,1009.11,0,0,0,2034.89,428.4a1021,1021,0,0,0,9-103.07q1.57-42.85-.46-86.3c-1.41-28.95-3.93-57.92-7.82-86.87a1030.79,1030.79,0,0,0-195.86-481,1030.15,1030.15,0,0,0-403.46-323.43,1028.83,1028.83,0,0,0-165.57-58,1034.85,1034.85,0,0,0-171.5-28.91c-30.47-2.49-54.84-3.3-77.37-3.51-23.49-.27-47.36.45-71,1.75-23.83,1.5-47.53,3.53-71.32,6.64s-47.43,6.84-71,11.47-47,10.13-70.19,16.32-46.21,13.24-68.9,21.09-45.1,16.41-67.23,25.66-43.85,19.33-65.14,30.14-42.3,22.21-62.8,34.37-40.56,25-60.2,38.44a1066.47,1066.47,0,0,0-111.66,88.4,1058.17,1058.17,0,0,0-183.11,218C106.5-230.33,94.5-209.56,83-188.56S60.89-146,51-124.14A1055.74,1055.74,0,0,0,.31,10.68c-6.83,23-13,46.23-18.28,69.58s-9.76,46.81-13.49,70.37S-38,197.71-40.1,221.21c-2,23.28-3.4,48.38-3.74,66A1089.82,1089.82,0,0,0,959.76,1402.72c19.31,1.53,39.82,2.64,54.57,3,16.16.41,32.21.7,48.47.43s32.51-.81,48.75-1.65q24.45-1.49,48.88-3.83A1135.82,1135.82,0,0,0,1354,1364.08a1127.92,1127.92,0,0,0,184.26-69.51,1136,1136,0,0,0,168.45-99.82A1131,1131,0,0,0,2175.9,367.93c1.26-15.64,2.42-33.2,3-47.32q.73-20.25.94-40.52c.19-13.47-.06-27.11-.44-40.71s-.86-27.17-1.77-40.81-2-27.29-3.26-40.9-2.95-27.26-4.7-40.86-3.68-27.19-6.07-40.74S2158.73,49,2156,35.49s-5.82-26.91-9-40.3-6.57-26.74-10.34-40S2129.1-71.27,2125-84.41s-8.6-26.14-13.17-39.12-9.4-25.83-14.47-38.61-10.2-25.54-15.74-38.08-11.22-25.05-17.08-37.45-12.1-24.59-18.38-36.76-12.77-24.24-19.58-36.09-13.67-23.7-20.76-35.38c-14.41-23.19-29.27-46.14-45.19-68.27-8-11.08-15.9-22.18-24.26-32.92s-16.78-21.48-25.38-32.05-17.53-20.84-26.5-31.09-18.11-20.33-27.51-30.19a1178.88,1178.88,0,0,0-120.08-110.85q-16-12.78-32.36-25.12c-11-8.16-22.1-16.1-33.31-23.94s-22.57-15.44-34.12-22.82-23.1-14.71-34.9-21.7-23.72-13.8-35.72-20.45-24.22-13-36.46-19.2c-24.45-12.52-49.56-23.86-74.85-34.69q-19-7.95-38.36-15.29t-38.86-14c-13-4.4-26.13-8.72-39.3-12.68s-26.42-7.66-39.71-11.21-26.63-6.75-40-9.81-26.83-6-40.26-8.47-26.92-4.85-40.43-7-27-3.86-40.48-5.54c-27.09-3.4-54-5.46-80.94-7-13.57-.75-23.4-.92-35.29-1.24q-17.12-.37-34.23-.41c-11.46.1-23,.37-34.44.73s-22.93.78-34.44,1.5-23,1.62-34.52,2.6-23,2-34.48,3.47A1250,1250,0,0,0,578.64-841c-11,3.81-21.88,7.75-32.66,12s-21.58,8.49-32.3,12.9-21.31,9.08-31.87,13.82-21.06,9.63-31.51,14.6-20.7,10.29-31,15.59-20.52,10.66-30.58,16.31-20.08,11.38-30,17.22-19.84,11.78-29.55,18A1257,1257,0,0,0,113.41-549.25c-8.22,8-16.14,16.37-24.1,24.67s-15.8,16.72-23.52,25.24-15.23,17.26-22.71,26S28.16-455.81,21-446.77,6.7-428.7-.31-419.55s-13.86,18.42-20.57,27.81-13.33,18.84-19.86,28.36-12.75,19.27-19,29A1243.6,1243.6,0,0,0-246.11,184.52c-1.38,11.4-2.7,22.83-3.81,34.23s-1.9,22.74-2.67,34.12c-.72,10.94-1.57,23.79-1.86,33.16q-.5,14.57-.78,29.17t-.35,29.18c0,9.74.26,19.55.5,29.33s.59,19.57,1,29.35,1,19.57,1.72,29.39,1.5,19.61,2.36,29.4,1.73,19.58,3,29.38c2.35,19.58,4.95,39.15,7.95,58.64q4.88,29.25,10.65,58.34c1.91,9.69,4.17,19.33,6.36,29s4.53,19.26,6.9,28.86A1331.64,1331.64,0,0,0-20.95,1094.79c11.23,16.07,22.64,32.06,34.43,47.72s24.08,30.93,36.47,46.11q18.88,22.52,38.51,44.41c6.51,7.31,13.29,14.38,20,21.51s13.55,14.16,20.4,21.15a1333.18,1333.18,0,0,0,384,270.35q13.47,6.2,27,12.19c9.06,4,18.07,8,27.26,11.67q27.5,11.14,55.34,21.44,28,9.87,56.27,18.86c9.42,3,18.93,5.68,28.43,8.43s19,5.33,28.58,7.89a1337.94,1337.94,0,0,0,232.08,39.41q14.53,1.13,29.11,2c9.87.63,19.59,1.14,27.43,1.38q12.54.45,25.09.77c8.39.15,16.79.22,25.18.26s16.8,0,25.22-.14,16.83-.29,25.26-.56c16.87-.62,33.72-1.33,50.61-2.54A1429,1429,0,0,0,1377.37,1639c33.3-7.08,66.34-15.44,99.07-24.83s65.06-20.11,97-31.85a1433.12,1433.12,0,0,0,644.13-476.22c10.3-13.41,20.22-27.13,30.06-40.89s19.34-27.81,28.57-42,18.3-28.54,27.14-43c4.39-7.26,8.69-14.58,13-21.9s8.48-14.71,12.6-22.13q24.88-44.45,46.47-90.76c14.47-30.78,27.69-62.19,39.92-94q4.55-11.92,8.94-23.92t8.47-24.1q4.2-12.06,8.06-24.23c2.59-8.1,5.21-16.21,7.65-24.36q14.81-48.87,26.1-98.61a1437.66,1437.66,0,0,0,30.66-200.28c1.45-16.76,2.37-33.43,3.24-50.15.35-7.69.58-14.69.83-22.07s.47-14.57.59-21.88l.22-21.95c0-7.32.09-14.62,0-22l-.38-22q-.2-11-.68-22a1565.54,1565.54,0,0,0-16.7-176.17,1540.21,1540.21,0,0,0-36.82-173.82,1552.78,1552.78,0,0,0-224-479.58,1553.13,1553.13,0,0,0-108.7-138.88,1578.45,1578.45,0,0,0-123.63-125.7,1569.46,1569.46,0,0,0-137.26-111.08c-11.91-8.68-24.1-17-36.26-25.34-6.07-4.18-12.26-8.21-18.42-12.27S1794.8-1077,1788.6-1081l-18.79-11.72c-6.29-3.88-12.56-7.78-18.93-11.52-12.73-7.52-25.44-15-38.39-22.18a1546.84,1546.84,0,0,0-327.28-136.73,1556.61,1556.61,0,0,0-347.73-58.9c-15.32-.92-27.23-1.26-40.29-1.7-6.43-.2-12.86-.4-19.3-.54l-19.36-.21-19.36-.09c-6.45,0-12.93.12-19.39.21l-19.4.36c-6.47.12-12.94.34-19.42.62-51.79,1.88-103.69,6.09-155.37,12.78a1715.93,1715.93,0,0,0-305.29,68,1706.1,1706.1,0,0,0-287.42,122.22A1719,1719,0,0,0-532.91-481.2,1706.12,1706.12,0,0,0-666.8-198.71,1719.87,1719.87,0,0,0-747,103.3c-8.76,51.24-15,102.74-19,154.17-1.11,12.88-1.82,25.71-2.57,38.56-.36,6.35-.74,13-1,19.12l-.62,17.23c-.37,11.5-.8,23-1,34.49s-.24,23.05-.28,34.57c.11,46.14,1.52,92.39,5,138.65l1.26,17.34,1.56,17.34c1.1,11.55,2.13,23.11,3.42,34.65s2.69,23.08,4.11,34.61q1,8.65,2.28,17.28l2.47,17.27,2.55,17.26c.83,5.75,1.86,11.48,2.8,17.22q2.89,17.21,5.93,34.4c4.39,22.86,8.77,45.73,14,68.44,4.92,22.77,10.59,45.36,16.31,67.94,3,11.26,6.07,22.49,9.17,33.71,1.58,5.61,3.1,11.23,4.75,16.81l5,16.74,5.07,16.72q2.52,8.35,5.25,16.65,5.39,16.62,10.93,33.17c3.74,11,7.69,22,11.6,32.94,2,5.47,3.92,11,6,16.41l6.21,16.31,6.28,16.28c2.1,5.43,4.21,10.84,6.44,16.22q6.59,16.14,13.32,32.24c4.52,10.71,9.26,21.32,13.95,32,2.37,5.31,4.71,10.63,7.12,15.91l7.38,15.79,7.44,15.76c2.48,5.25,5,10.49,7.59,15.68q7.74,15.6,15.61,31.14c5.29,10.33,10.77,20.56,16.22,30.81,2.74,5.11,5.46,10.24,8.25,15.32l8.49,15.19,8.55,15.15q4.27,7.57,8.7,15.06,8.84,15,17.8,29.88c6,9.9,12.22,19.7,18.39,29.51,3.1,4.89,6.17,9.81,9.34,14.66l9.54,14.51A1920.4,1920.4,0,0,0-87.27,1867.59l13.32,11.14c4.44,3.71,9,7.31,13.48,11,9,7.25,18.06,14.52,27.19,21.64s18.39,14.11,27.63,21.1q6.9,5.28,14,10.37L22.37,1953l14.11,10.17c4.72,3.36,9.5,6.64,14.26,10,9.55,6.59,19.08,13.2,28.73,19.64s19.39,12.76,29.13,19.07c4.85,3.18,9.76,6.27,14.69,9.34l14.8,9.2,14.83,9.13c5,3,10,5.94,15,8.9,10,5.88,20,11.8,30.13,17.52s20.29,11.34,30.48,16.93c5.08,2.83,10.21,5.55,15.36,8.26l15.45,8.1,15.48,8c5.18,2.64,10.4,5.21,15.61,7.8,10.44,5.14,20.85,10.32,31.37,15.3s21.1,9.83,31.68,14.67c5.28,2.45,10.61,4.8,16,7.12l16,7,16.05,6.89c5.36,2.28,10.76,4.44,16.15,6.65,10.8,4.37,21.58,8.76,32.43,13s21.79,8.25,32.7,12.31q8.17,3.08,16.43,6l16.49,5.76,16.51,5.69c5.5,1.92,11.06,3.65,16.6,5.46q16.62,5.36,33.29,10.58c22.31,6.63,44.64,13.28,67.16,19.13,22.46,6.11,45.09,11.48,67.73,16.78,11.34,2.57,22.7,5,34.07,7.37,5.69,1.19,11.37,2.4,17.06,3.54l17.1,3.25c45.61,8.77,91.47,15.55,137.38,20.92q17.22,1.92,34.45,3.71c11.48,1.07,23,2,34.45,3,5.74.45,11.49.94,17.23,1.34l17.21,1.06,17.22,1c5.57.28,11.87.69,16.8.84l31.17,1.07c10.4.31,20.78.67,31.21.72l31.26.23c5.21,0,10.41.09,15.63,0l15.66-.23a2185.54,2185.54,0,0,0,250.53-17.92A2164.68,2164.68,0,0,0,1683,2249.9c20.44-5,40.68-10.69,61-16.29,10.15-2.76,20.2-5.86,30.28-8.86l30.18-9.19,30-9.79c10-3.32,20-6.56,29.87-10.12,19.81-7,39.66-14,59.23-21.62l29.41-11.36q14.61-5.91,29.15-12c19.47-7.91,38.65-16.45,57.84-25,9.62-4.21,19.11-8.69,28.61-13.14l28.46-13.47q14.13-6.93,28.17-14c9.37-4.72,18.78-9.37,28-14.32a2198.69,2198.69,0,0,0,215.65-128.92A2209,2209,0,0,0,2567.76,1789c4-3.38,7.91-6.83,11.82-10.31l11.72-10.41c7.79-7,15.63-13.89,23.32-21l22.93-21.39,11.42-10.75,11.24-10.93,22.37-22c3.74-3.66,7.38-7.41,11-11.14l10.95-11.23,10.92-11.27c3.63-3.76,7.28-7.5,10.82-11.34l21.35-23a2142.06,2142.06,0,0,0,158.67-194.52c24.67-33.86,48.06-68.68,70.78-103.93,5.62-8.85,11.14-17.78,16.67-26.69l8.27-13.39c2.77-4.45,5.46-9,8.12-13.48l16-27.14c2.62-4.54,5.32-9,7.87-13.63l7.68-13.75,15.23-27.57c5-9.25,9.83-18.56,14.7-27.87l7.28-14c2.44-4.65,4.8-9.34,7.12-14.05l14-28.28c2.29-4.72,4.65-9.42,6.86-14.18l6.66-14.29,13.2-28.64c4.29-9.6,8.45-19.26,12.64-28.9l6.23-14.49q3.15-7.23,6.09-14.54a2181.44,2181.44,0,0,0,82.74-238.29c1.48-5,2.87-10.11,4.22-15.18l4.08-15.23c2.69-10.16,5.41-20.31,8-30.5l7.38-30.63c2.42-10.22,4.89-20.43,7-30.7,4.38-20.52,8.89-41,12.63-61.66l5.72-30.93c1.81-10.32,3.43-20.66,5.11-31l2.47-15.51c.8-5.18,1.66-10.35,2.34-15.53l4.23-31.08,2-15.55c.67-5.19,1.21-10.38,1.81-15.56l3.39-31.14c1.16-10.38,2-20.76,2.9-31.14l2.55-31.16c.76-10.38,1.33-20.76,1.95-31.14l.88-15.57c.26-5.05.63-10.69.77-15.26a2487.2,2487.2,0,0,0-22.18-457.88,2455.21,2455.21,0,0,0-107.05-448,2469.35,2469.35,0,0,0-188.48-419.63,2479.54,2479.54,0,0,0-262.09-376.53,2482,2482,0,0,0-326.72-321.65q-88.95-72.67-184.51-137-95.48-64.15-196.8-119.33a2463.59,2463.59,0,0,0-423.35-181.43q-109.8-35.33-222.46-60.27-112.44-24.9-226.51-39.14c-4.75-.63-9.49-1.24-14.23-1.75l-14.24-1.59-28.49-3.09-14.25-1.49-14.25-1.24-28.51-2.4c-19-1.69-38-2.7-57-3.81l-14.25-.8c-4.66-.24-9.72-.58-14-.72l-26.43-.92-26.43-.85c-8.81-.26-17.61-.6-26.45-.63q-26.49-.27-53-.4c-4.42,0-8.83-.07-13.25,0l-13.26.2-26.52.45-26.52.53c-4.42.06-8.84.27-13.27.44l-13.26.54a2852.31,2852.31,0,0,0-422.81,47.83,2842,2842,0,0,0-411.72,110.6l-25.11,9-12.55,4.5c-4.18,1.51-8.37,3-12.51,4.59q-24.91,9.46-49.77,19.1c-4.14,1.61-8.29,3.2-12.42,4.84l-12.33,5.05-24.64,10.14-24.61,10.22c-8.16,3.5-16.27,7.11-24.41,10.67l-24.36,10.77c-8.11,3.62-16.26,7.16-24.27,11q-24.12,11.28-48.18,22.7-6,2.82-12,5.8l-11.92,5.93-23.8,11.92c-7.92,4-15.88,7.93-23.74,12l-23.52,12.44-23.49,12.51-11.72,6.3-11.61,6.49q-23.21,13-46.34,26.13c-30.54,18-61.12,36-91,55l-22.49,14.18c-3.76,2.34-7.47,4.76-11.16,7.21l-11.1,7.31-22.16,14.67-11.06,7.35c-3.69,2.46-7.38,4.9-11,7.45q-21.84,15.12-43.6,30.37c-3.62,2.56-7.28,5-10.85,7.67l-10.73,7.82-21.43,15.7a2869.49,2869.49,0,0,0-599.91,597.7q-63.29,85.48-120.39,175.43-14.1,22.57-28.06,45.25c-4.72,7.51-9.14,15.22-13.67,22.85l-13.49,23c-4.47,7.67-9,15.3-13.38,23l-13,23.26-12.91,23.31-6.42,11.67-6.22,11.78a2845.49,2845.49,0,0,0-171.73,390.08c-5.85,16.8-11.74,33.58-17.4,50.43q-8.22,25.37-16.29,50.79l-4,12.72-3.81,12.78-7.52,25.58-7.44,25.61c-1.26,4.26-2.41,8.55-3.56,12.84L-1931-224c-4.57,17.17-9.19,34.33-13.56,51.55q-6.3,25.89-12.43,51.82l-3.06,13c-1,4.33-1.89,8.67-2.84,13l-5.57,26-5.49,26.06c-.94,4.34-1.8,8.69-2.61,13L-1979-16.39c-3.27,17.44-6.54,34.88-9.67,52.34q-4.32,26.22-8.48,52.49c-2.91,17.49-5.16,35.05-7.56,52.59l-3.51,26.33c-.56,4.39-1.2,8.77-1.68,13.17l-1.48,13.18q-2.93,26.35-5.71,52.74c-.51,4.39-.82,8.79-1.22,13.19l-1.13,13.19-2.21,26.4c-.7,8.8-1.48,17.6-2.08,26.4l-1.6,26.39-1.51,26.41c-.48,8.74-1.05,17.84-1.27,25.84A3417.59,3417.59,0,0,0-2021.74,801c9.67,132.31,27.89,264.22,53.54,394.68l4.83,24.46,2.44,12.23c.82,4.07,1.76,8.12,2.63,12.19l10.81,48.69c1.83,8.1,3.6,16.23,5.52,24.31l6,24.22,12.09,48.39c1,4,2.08,8,3.18,12.06l3.28,12,6.59,24,6.65,24,3.35,12,3.56,11.95,14.4,47.75,3.64,11.92c1.2,4,2.41,8,3.73,11.9l7.74,23.7,15.65,47.35c5.46,15.7,11.06,31.35,16.64,47,10.94,31.4,23.09,62.33,35,93.35l4.5,11.62c1.48,3.88,3.12,7.7,4.67,11.55l9.48,23c6.35,15.34,12.64,30.72,19.13,46l20.07,45.6,10.11,22.77c3.41,7.57,7,15,10.5,22.58l21.24,45c1.8,3.74,3.51,7.52,5.39,11.23l5.54,11.14,11.13,22.27,11.17,22.25c3.73,7.41,7.43,14.84,11.36,22.15l23.34,44c3.92,7.3,7.77,14.66,11.78,21.92l12.16,21.7,24.46,43.34c8.34,14.33,16.86,28.56,25.33,42.82s16.89,28.55,25.79,42.53l26.45,42.12,6.64,10.51c2.22,3.5,4.54,6.94,6.81,10.4l13.69,20.75,13.73,20.73,6.89,10.35c2.29,3.45,4.58,6.9,7,10.29l28.39,40.81,14.26,20.36,14.63,20.08,29.42,40.07q3.66,5,7.46,9.93l7.56,9.86,15.15,19.69,15.19,19.67,7.62,9.81,7.79,9.68c20.84,25.75,41.46,51.68,63.08,76.78,10.73,12.62,21.44,25.25,32.25,37.8l33,37.12,16.57,18.51c2.74,3.1,5.6,6.1,8.41,9.14l8.46,9.09,34,36.27c5.63,6.08,11.45,12,17.23,17.9l17.38,17.75,17.41,17.71,8.73,8.85c2.9,3,5.9,5.81,8.85,8.71l35.62,34.65,8.92,8.64c3,2.88,5.94,5.77,9,8.57l18.2,16.92,36.49,33.74q18.54,16.55,37.2,33l18.65,16.42c3.1,2.74,6.23,5.46,9.41,8.11l9.49,8,38,32,9.53,8,9.68,7.8,19.38,15.57,19.42,15.53,9.71,7.75c3.23,2.6,6.51,5.13,9.81,7.65a3332.3,3332.3,0,0,0,680.87,410.2c3.77,1.76,7.57,3.43,11.39,5.08l11.42,5,22.88,9.93L8.64,3626l11.46,4.92,11.54,4.71,46.24,18.7L89.45,3659c3.85,1.56,7.71,3.1,11.61,4.55l23.33,8.82,46.71,17.48c15.66,5.59,31.37,11,47.08,16.49l23.56,8.15c3.94,1.33,7.85,2.75,11.81,4l11.86,3.83,47.51,15.21,11.88,3.77c3.95,1.28,7.94,2.46,11.92,3.63l23.92,7.05,47.88,13.95q24,6.54,48.15,12.89l24.1,6.37c4,1,8,2.16,12.07,3.11l12.11,2.93,48.46,11.59,12.13,2.87c4,1,8.09,1.88,12.15,2.74l24.35,5.22,48.73,10.31c16.28,3.19,32.6,6.2,48.91,9.25,65.23,12.33,130.84,22,196.53,30.47,4.11.55,8.21,1.08,12.33,1.52l12.33,1.37,24.67,2.72,24.68,2.67,12.34,1.32c4.11.46,8.23.82,12.34,1.17l49.41,4.17,24.71,2c4.12.37,8.23.57,12.35.84l12.36.74,49.42,2.87,12.36.68c4.23.27,7.9.32,11.87.48l23.39.81,46.78,1.52,23.4.69,23.43.23,46.86.35,23.43.14c3.91,0,7.81,0,11.72-.06l11.73-.18,46.91-.81,23.45-.46,11.73-.24c3.91-.1,7.82-.3,11.72-.45l46.92-2,23.45-1,11.73-.53c3.91-.18,7.82-.33,11.73-.62q46.89-3.09,93.76-6.43,46.83-4.17,93.64-8.74c3.9-.37,7.8-.75,11.69-1.23l11.68-1.37,23.36-2.76,46.71-5.61q186.68-24.16,370.67-66.13a3929.23,3929.23,0,0,0,714-236.89,3947.2,3947.2,0,0,0,654.87-367.69,3964,3964,0,0,0,572.94-484.14,3956.75,3956.75,0,0,0,471.65-583.82A3935.85,3935.85,0,0,0,4983.79,1455q72.16-174,127.44-354.46,55.13-180.15,92.63-364.88,37.5-184.36,57.31-371.29l2.52-23.32c.81-7.77,1.74-15.54,2.34-23.33l4-46.7,3.82-46.71,2.79-46.72,2.67-46.73c.49-7.95.71-15.18,1-22.65l.88-22.31.85-22.3.62-22.32c.37-14.88.84-29.76,1.1-44.65A4713.68,4713.68,0,0,0,5243.08-718a4676.4,4676.4,0,0,0-149.36-701.56A4686.23,4686.23,0,0,0,4839-2089.85a4711.26,4711.26,0,0,0-353.57-622.89l-12.5-18.57-12.68-18.46-12.7-18.44-6.36-9.21-6.45-9.15-25.84-36.56-26.24-36.28q-52.85-72.28-108.24-142.64-55.55-70.22-113.59-138.38l-29.19-33.94L4102.05-3208c-9.81-11.23-19.87-22.25-29.85-33.35l-15-16.6c-5-5.53-10.1-11-15.15-16.47A4728.53,4728.53,0,0,0,3519-3762.7a4713.2,4713.2,0,0,0-591.66-403.74c-6.48-3.72-12.91-7.52-19.43-11.18l-19.54-11c-13-7.31-26-14.71-39.17-21.83l-39.37-21.49-39.6-21.05q-79.44-41.68-160.36-80.51-81-38.59-163.39-74.27t-166.16-67.95a4678.38,4678.38,0,0,0-686.82-206.68,4721.86,4721.86,0,0,0-708.59-99.53c-14.86-1-29.71-1.94-44.57-2.66l-44.55-2.28-42.87-1.69c-14.3-.54-28.58-1.18-42.89-1.5-28.61-.72-57.21-1.66-85.85-1.92l-42.94-.58-43-.09c-57.28-.15-114.6.93-171.9,2.47-14.33.44-28.65,1-43,1.52l-21.49.8-10.74.41-10.75.52-43,2.13c-7.16.37-14.33.68-21.48,1.12l-21.48,1.32-42.95,2.69c-14.31,1-28.61,2.1-42.92,3.16l-21.46,1.61-10.73.82-10.72.93-42.89,3.76c-7.14.65-14.3,1.2-21.44,1.95l-21.42,2.13L-62.92-4761l-42.8,4.81c-14.27,1.63-28.54,3.16-42.78,5-28.49,3.59-57,7-85.43,11.11l-42.67,5.95-42.61,6.43-21.3,3.24c-7.1,1.08-14.18,2.29-21.27,3.43l-42.52,7-10.63,1.76-10.61,1.87-21.22,3.75L-468-4702.9c-7.07,1.27-14.15,2.48-21.21,3.84q-169.5,31.46-337,73-167.28,41.82-331.87,93.55-164.37,52-325.43,113.75-160.82,62-317.73,133.45-156.64,71.74-308.83,152.58l-37.9,20.43-18.94,10.24-18.82,10.43-37.64,20.9-37.41,21.3c-25,14.12-49.64,28.8-74.4,43.3-6.2,3.61-12.35,7.31-18.49,11L-2372-3984l-18.42,11.12c-6.15,3.7-12.29,7.41-18.37,11.2a5672.86,5672.86,0,0,0-1074.72,854.64l-15.08,15.34c-5,5.12-10.08,10.19-15,15.38l-29.8,31c-4.95,5.18-9.95,10.32-14.86,15.54L-3573-3014.1l-29.42,31.38c-38.82,42.22-77.38,84.68-114.95,128l-14.14,16.21-7.06,8.12-7,8.18-27.89,32.75c-9.35,10.88-18.44,22-27.63,33s-18.37,22-27.45,33.13l-27.11,33.41-13.53,16.73-13.36,16.86-26.7,33.75-26.32,34-13.14,17c-4.4,5.67-8.67,11.44-13,17.15l-25.89,34.38c-4.34,5.71-8.57,11.5-12.82,17.28l-12.75,17.34-12.73,17.35-6.36,8.67-6.28,8.74c-16.7,23.34-33.54,46.58-49.86,70.18l-24.6,35.32-24.23,35.59q-96.76,142.46-184.35,290.93a5620.57,5620.57,0,0,0-313.84,613.33A5608.39,5608.39,0,0,0-4871.82-757.8q-49.28,165.21-87.91,333.28c-6.63,27.95-12.64,56-18.81,84.08-3.13,14-5.93,28.09-8.86,42.14l-8.66,42.19c-11,56.35-21.64,112.77-31,169.39C-5065.18,139.67-5089,368.13-5099.59,596.68Z"/><path class="cls-10" d="M-5099.59,596.68l1846.52,83.93c2.47-155.27,13.69-310.26,34.75-464,5.09-38.46,11.15-76.76,17.35-115.06l5-28.66c1.69-9.55,3.24-19.14,5.09-28.65,3.62-19.06,7-38.17,10.95-57.17,15.18-76.11,32.46-151.86,52.4-227A3792,3792,0,0,1-2981-683.07a3819.44,3819.44,0,0,1,200.64-423.74,3879.37,3879.37,0,0,1,552.21-764.12,3924,3924,0,0,1,725.63-613.72,3911,3911,0,0,1,857.16-422.78q113.45-39.39,229.29-72.13,115.86-32.45,233.75-58c4.9-1.13,9.83-2.09,14.75-3.12l14.76-3.07,14.76-3.08,7.38-1.54,7.39-1.45,29.61-5.77c4.94-.94,9.86-2,14.81-2.86l14.85-2.69,29.69-5.42,29.77-5c19.83-3.49,39.75-6.43,59.65-9.58,9.94-1.63,19.93-3,29.9-4.41l29.93-4.29,30-3.9,15-2c5-.69,10-1.2,15-1.81L205-3101.1l7.51-.89,7.53-.79,15.06-1.57,30.13-3.15,30.17-2.77,15.09-1.4c5-.47,10.07-.81,15.11-1.22l30.23-2.41,7.56-.61,7.57-.49,15.14-1,30.29-2c40.41-2.23,80.88-4.27,121.43-5.33l30.41-.86,30.43-.47c20.29-.47,40.6-.32,60.92-.45,10.16-.11,20.32.09,30.48.17l30.5.28,29.15.61c9.71.13,19.4.51,29.1.83a3068.81,3068.81,0,0,1,462.49,50.37,3039.19,3039.19,0,0,1,450.24,120.42c36.72,13,73.29,26.54,109.56,40.9s72.27,29.47,108.06,45.15,71.18,32.3,106.37,49.38l26.34,13,26.18,13.27c8.76,4.37,17.4,9,26.08,13.51l13,6.81c4.35,2.25,8.63,4.63,13,6.94a3099.52,3099.52,0,0,1,397.17,253.59,3129.22,3129.22,0,0,1,356.1,312.75c3.47,3.54,7,7,10.41,10.61l10.28,10.74c6.84,7.17,13.78,14.26,20.5,21.54l20.32,21.72,20.07,22q39.92,44.14,78.33,89.71,38.25,45.67,74.89,92.74l18.21,23.62,17.93,23.83,4.49,6,4.42,6,8.82,12,8.83,12,8.69,12.13a3145.12,3145.12,0,0,1,248.34,408.26,3133.62,3133.62,0,0,1,183.69,442.86A3135.45,3135.45,0,0,1,3725.85-515a3184.47,3184.47,0,0,1,41.86,483c.14,10.15.08,20.31.14,30.47l.06,15.24-.16,15.25-.14,15.25c-.06,5.06,0,10.28-.23,15l-.83,29.11-.74,29.14-1.57,29.07-1.49,29.1c-.17,4.86-.66,9.68-1,14.52l-1.15,14.5q-8.68,116.14-28.32,231.1Q3712.59,550.54,3682,663.3q-30.72,112.56-72.24,222.14a2453.72,2453.72,0,0,1-207.54,420.68,2490.28,2490.28,0,0,1-285.71,376.5,2512,2512,0,0,1-353.84,317.82,2510.13,2510.13,0,0,1-409.41,246.38,2504.75,2504.75,0,0,1-450.74,164.72q-116.6,30.33-236.16,49.49l-29.91,4.46-15,2.25-7.48,1.14c-2.49.4-5,.71-7.5,1l-60.1,7.44-60.35,5.94c-2.51.28-5,.43-7.56.61l-7.56.54-15.14,1.09-30.29,2.24c-2.52.18-5,.4-7.57.54l-7.59.35-15.18.7-30.38,1.46-7.59.38c-2.53.15-5.07.22-7.61.25l-15.21.32-30.45.68-15.23.36-15.24-.05-30.5-.11-15.26,0c-2.51,0-5.18.05-7.54-.06l-7.29-.21-29.13-.8-7.29-.18c-2.43-.07-4.87-.08-7.29-.25l-14.54-.79-29.11-1.5c-2.43-.12-4.85-.24-7.27-.46l-7.25-.58-14.52-1.15-14.53-1.11-7.26-.55c-2.43-.16-4.84-.41-7.25-.68-38.63-3.89-77.26-8.19-115.61-14.32-9.59-1.5-19.21-2.91-28.8-4.46l-28.66-5.2L880,2457.73c-2.39-.41-4.78-.85-7.15-1.38l-7.13-1.48-28.55-5.9-7.14-1.46c-2.39-.45-4.74-1.09-7.11-1.62l-14.19-3.32-28.42-6.6-28.22-7.36L737.93,2425c-2.36-.6-4.71-1.2-7-1.91l-7-2-28.07-8-7-2c-2.35-.64-4.64-1.44-7-2.15l-13.93-4.39L640,2395.73l-27.66-9.45-13.85-4.7c-2.32-.75-4.61-1.6-6.89-2.46l-6.85-2.54-27.47-10.12-6.87-2.52-6.8-2.71-13.6-5.42-13.61-5.39-6.82-2.69c-2.27-.89-4.54-1.79-6.78-2.78a2045.58,2045.58,0,0,1-211.28-102.52A2059.7,2059.7,0,0,1,93.05,2114.78c-2-1.43-4-2.86-6-4.37l-5.9-4.46-11.82-8.9-11.83-8.89-5.93-4.44-5.8-4.6-23.23-18.38-5.82-4.58c-2-1.51-3.87-3.08-5.76-4.67L-.4,2042l-22.82-18.93-22.35-19.52-11.21-9.74c-1.89-1.6-3.69-3.28-5.52-5l-5.46-5-21.93-20c-1.82-1.68-3.69-3.31-5.47-5l-5.35-5.16-10.71-10.29L-121.95,1933c-3.58-3.42-7.2-6.81-10.65-10.38l-21-21.1-5.26-5.27c-1.74-1.77-3.53-3.49-5.21-5.31l-10.21-10.82-20.5-21.6-20-22.1c-13.52-14.57-26.18-29.86-39.24-44.86l-4.88-5.65-4.71-5.76-9.45-11.54-9.46-11.53-4.74-5.76q-2.4-2.86-4.66-5.83L-310.18,1722l-9.2-11.76-8.88-12-17.82-24c-1.52-2-2.94-4-4.36-6.06l-4.3-6.11-8.61-12.2-8.64-12.2c-1.43-2-2.91-4-4.3-6.11l-4.15-6.21-16.65-24.83c-5.68-8.21-10.87-16.71-16.25-25.1s-10.75-16.8-16.05-25.25l-15.44-25.63-7.75-12.81c-2.56-4.28-4.95-8.66-7.44-13l-14.86-26c-2.54-4.31-4.85-8.73-7.22-13.12l-7.09-13.19-7.12-13.18-3.57-6.59c-1.22-2.18-2.28-4.44-3.43-6.66l-13.56-26.72c-2.25-4.47-4.6-8.88-6.77-13.38l-6.44-13.53-13-27.06c-4.16-9.09-8.17-18.24-12.29-27.36l-6.15-13.69c-1-2.29-2.11-4.54-3-6.86l-2.89-6.92c-7.65-18.48-15.72-36.83-22.75-55.57l-10.94-28-10.22-28.25-5.14-14.13c-.89-2.35-1.68-4.72-2.46-7.1l-2.37-7.13-9.56-28.52-2.41-7.13-2.19-7.19-4.42-14.39-4.43-14.38-2.22-7.19c-.75-2.4-1.5-4.79-2.15-7.22l-8.12-29-4.09-14.5c-1.31-4.85-2.48-9.73-3.73-14.6L-672,971c-.61-2.44-1.28-4.87-1.84-7.32l-1.66-7.35-3.33-14.71C-715,784.83-731.49,623-729.62,460.11c0-5.19.17-9.92.29-14.8l.41-14.58.37-14.59c.17-4.86.51-9.7.74-14.55L-727,387l.37-7.29c.14-2.42.19-4.86.42-7.28L-724,343.4l.55-7.27c.16-2.43.49-4.83.72-7.25l1.51-14.49c1-9.66,1.85-19.36,3.24-29l3.71-28.92,4.45-28.8,1.1-7.21c.35-2.41.74-4.8,1.21-7.19l2.61-14.33,2.57-14.36c.44-2.39.84-4.79,1.31-7.18l1.49-7.13,5.89-28.57c2.12-9.49,4.42-18.94,6.59-28.42l1.64-7.12c.54-2.37,1.08-4.74,1.72-7.09L-680,85l3.65-14.14,1.84-7.07,2-7,8-28.1c2.84-9.31,5.83-18.58,8.72-27.9A1572.46,1572.46,0,0,1-448.07-419.43a1606.8,1606.8,0,0,1,971.35-649.83A1619.89,1619.89,0,0,1,763-1103.59l7.58-.56c2.53-.18,5.05-.41,7.59-.49l15.2-.71,15.2-.73,7.61-.37c2.53-.12,5.07-.12,7.61-.19l30.48-.68c5.09-.19,10.17-.07,15.26-.07l15.27.06,15.28,0c2.57,0,4.9.12,7.36.17l7.29.21c9.73.29,19.48.38,29.18,1l14.57.76,7.29.37,7.27.57,14.54,1.13,7.28.56c2.43.16,4.85.4,7.26.67q58.12,5.33,115.52,16.3t113.63,27.07a1253.66,1253.66,0,0,1,218.11,85.64q52.56,26.53,102.68,58t97.13,67.64a1285.23,1285.23,0,0,1,174.3,161.56A1289.39,1289.39,0,0,1,2070.64-278a1282.37,1282.37,0,0,1,63,232.7A1320.46,1320.46,0,0,1,2152.51,197c0,2.6-.12,4.91-.17,7.38l-.2,7.31c-.16,4.86-.21,9.74-.43,14.61l-.78,14.58c-.26,4.86-.43,9.74-.88,14.58L2148.91,270c-.2,2.43-.33,4.87-.59,7.28l-.76,7.26-1.5,14.53c-.21,2.43-.57,4.83-.88,7.25l-.94,7.24c-.64,4.82-1.19,9.66-1.89,14.48l-2.25,14.43c-1.34,9.65-3.29,19.18-5,28.79-.79,4.81-1.85,9.56-2.83,14.33L2129.36,400c-1.06,4.75-2.22,9.48-3.31,14.23l-1.65,7.13c-.53,2.38-1.09,4.75-1.73,7.1a1027.77,1027.77,0,0,1-35,111.77q-1.23,3.47-2.62,6.85l-2.72,6.82c-1.82,4.54-3.58,9.12-5.43,13.65L2071.13,581l-2.87,6.77c-.94,2.27-2,4.47-3,6.7l-6.09,13.4c-1,2.24-2,4.47-3.12,6.66l-3.22,6.62-6.43,13.25-6.77,13.09-3.37,6.56c-1.09,2.2-2.34,4.32-3.5,6.48l-7.08,13c-1.16,2.17-2.35,4.32-3.61,6.44l-3.7,6.38-7.41,12.78c-10.24,16.83-20.63,33.6-31.83,49.87a999.2,999.2,0,0,1-72.18,94.2l-9.77,11.22c-1.6,1.89-3.31,3.7-5,5.53l-5,5.49-5,5.49c-1.67,1.84-3.32,3.69-5.07,5.46l-10.32,10.75-5.16,5.38-5.29,5.24-10.58,10.52c-3.54,3.48-7.21,6.84-10.8,10.28l-5.42,5.14c-1.79,1.72-3.6,3.43-5.47,5.07A1025.48,1025.48,0,0,1,1630.46,1069c-4.32,2.55-8.77,4.82-13.17,7.22l-13.22,7.13-13.4,6.79c-4.46,2.27-8.91,4.59-13.45,6.69-9.06,4.29-18,8.75-27.25,12.73l-13.72,6.16-13.89,5.8c-9.2,4-18.62,7.48-27.95,11.19-4.66,1.89-9.41,3.51-14.12,5.24l-14.17,5.15-14.29,4.77c-4.78,1.58-9.52,3.28-14.34,4.68-9.63,2.9-19.19,6.06-28.92,8.65a1042.77,1042.77,0,0,1-118.07,26.24,1067.76,1067.76,0,0,1-121,12.22l-7.62.37c-2.54.13-5.09.13-7.63.2l-15.27.34c-5.09.18-10.19.09-15.29.08l-15.3,0c-2.61,0-4.93-.11-7.4-.16l-7.31-.2-7.32-.19c-2.44-.09-4.87-.26-7.3-.38l-14.61-.77-14.58-1.15a802,802,0,0,1-227.39-53.19A811,811,0,0,1,618.26,1026.9,826,826,0,0,1,304.31,401.46L304,386.17c-.08-5.1,0-10.2,0-15.31l0-7.66.19-7.35c.16-4.88.19-9.78.52-14.65.91-19.51,2.64-39,5.37-58.33A644.35,644.35,0,0,1,450.32-37.52,661.62,661.62,0,0,1,858.85-272.18q30-4.85,60.56-6.78c2.54-.2,5.08-.38,7.63-.47l7.64-.36c2.54-.1,5.09-.29,7.64-.33l7.66-.16,7.66-.18,7.66,0c5.09,0,10.33,0,15.13.17a515.28,515.28,0,0,1,116.13,16c76,19.28,147.85,56.76,208.51,108.52A529.12,529.12,0,0,1,1467.9,92.86a515.83,515.83,0,0,1,14.35,59,542.05,542.05,0,0,1,7.54,60.56q.32,3.81.47,7.64l.36,7.65c.16,2.55.16,5.11.23,7.67l.17,7.67c0,5.11,0,10.27,0,15.35-.17,4.9-.19,9.82-.52,14.72a420.2,420.2,0,0,1-7.08,58.4c-1.94,9.62-4.12,19.21-6.68,28.7-.61,2.38-1.34,4.73-2,7.1s-1.35,4.73-2.11,7.07l-2.22,7-2.39,7a417,417,0,0,1-54.55,105.14,424.87,424.87,0,0,1-305,175.78c-5.07.57-10.18.84-15.28,1.25-2.56.15-5.11.24-7.67.37s-5.12.24-7.68.27l-7.7.17-7.7,0c-2.62,0-5.07-.08-7.51-.2l-7.38-.3a340,340,0,0,1-58.45-8.06l-7.18-1.77c-2.38-.63-4.82-1.08-7.16-1.83L960.52,655l-14-5c-2.36-.76-4.59-1.85-6.89-2.75l-6.87-2.83a337.3,337.3,0,0,1-52.4-28.32,342.45,342.45,0,0,1-46.95-37.32l-5.37-5.29c-1.76-1.78-3.65-3.46-5.33-5.33L812.5,557.09l-9.72-11.58c-3.12-4-6.1-8-9.19-12a344.54,344.54,0,0,1-53.14-108.61l-2-7.38c-.62-2.46-1.4-4.9-1.92-7.39l-3.2-15L730.9,380c-.48-2.52-.66-5.07-1-7.61l-.85-7.63c-.3-2.55-.6-5.1-.69-7.66l-.45-7.69c-.13-2.56-.37-5.12-.43-7.69l0-7.72-.08-7.73c-.07-2.6.17-5,.23-7.47l.28-7.41c.19-2.46.46-4.92.67-7.38a263.12,263.12,0,0,1,36.56-112.3c1.31-2.14,2.5-4.34,3.88-6.43l4.16-6.25c1.37-2.1,2.74-4.21,4.28-6.19l4.45-6.07c1.43-2.07,3.09-3.95,4.66-5.92L791.3,155c1.65-1.9,3.36-3.75,5-5.64s3.28-3.82,5.09-5.58a280,280,0,0,1,46.28-39c2.06-1.49,4.21-2.83,6.38-4.14l6.47-4c2.15-1.35,4.43-2.47,6.63-3.74s4.43-2.49,6.68-3.67l6.85-3.36c2.28-1.11,4.53-2.32,6.89-3.26l7-3c2.32-1.07,4.7-2,7.09-2.83A277.42,277.42,0,0,1,960.91,61.2c2.53-.49,5.09-.66,7.64-1l7.67-.86c2.56-.26,5.14-.32,7.71-.5l7.72-.46,7.75-.06c2.55,0,5.22-.13,7.7,0,4.95.24,9.94.28,14.87.87a215.5,215.5,0,0,1,58,13.41A220.29,220.29,0,0,1,1219.1,257.89c.3,2.57.34,5.16.53,7.74s.37,5.18.32,7.77l.07,7.79c0,2.58-.19,5-.26,7.53a177.87,177.87,0,0,1-4.13,29.68,165.43,165.43,0,0,1-9.27,28.6,175.54,175.54,0,0,1-55.53,71.3,181,181,0,0,1-26,16.47,173.26,173.26,0,0,1-28.55,11.7,182.22,182.22,0,0,1-30.29,6.65l-7.75.86-7.8.46c-2.61.18-5.22.08-7.83.14s-5.14-.08-7.66-.17a140.44,140.44,0,0,1-29.83-4.69A138.88,138.88,0,0,1,977,438.56c-36.16-18.76-63.88-54.47-72.71-95.3a145.78,145.78,0,0,1-3.43-31.17c-.09-2.68.08-5.18.17-7.73s.4-5.07.71-7.59.68-5,1.23-7.54,1.1-5,1.7-7.45a114.39,114.39,0,0,1,31.08-52.47,116,116,0,0,1,54.54-29.4c2.57-.57,5.15-1.11,7.77-1.47s5.23-.66,7.86-1c2.64-.14,5.28-.41,7.94-.4s5.32-.05,7.86.11a95.3,95.3,0,0,1,15.29,2.1,90.7,90.7,0,0,1,14.75,4.71A90.57,90.57,0,0,1,1078,220.59a96,96,0,0,1,10.8,11.46,93,93,0,0,1,8.72,13.2,94.57,94.57,0,0,1,6.43,14.51,95.54,95.54,0,0,1,5.07,31.48,73.8,73.8,0,0,1-14.78,44.09A75.82,75.82,0,0,1,1083.45,347a76.92,76.92,0,0,1-13.12,9.2,75.91,75.91,0,0,1-30.74,9.33c-2.7.2-5.44.29-8.15.24a62.3,62.3,0,0,1-7.94-.72,60.21,60.21,0,0,1-15.32-4.52,61.76,61.76,0,0,1-36.12-50.81,54.46,54.46,0,0,1-.15-8.27A48.08,48.08,0,0,1,979,278.21a56.38,56.38,0,0,1,4.8-6.73,57.19,57.19,0,0,1,6-5.8,52.15,52.15,0,0,1,14.34-8.46,51.22,51.22,0,0,1,8.08-2.35,49.1,49.1,0,0,1,8.39-.94,40.69,40.69,0,0,1,16.5,2.62,41.53,41.53,0,0,1,23.61,23.32,42.1,42.1,0,0,1,2.89,17,33.35,33.35,0,0,1-5.07,16.45,34.43,34.43,0,0,1-5.54,6.8,35.86,35.86,0,0,1-7.16,5.17,35.07,35.07,0,0,1-17.19,4.18,35.54,35.54,0,0,0,17.6-3.38,36.72,36.72,0,0,0,7.65-5A36,36,0,0,0,1066.25,297a45.36,45.36,0,0,0-2.21-18.4,46.14,46.14,0,0,0-43.54-31,55.05,55.05,0,0,0-9.51.6,56.59,56.59,0,0,0-9.32,2.2,59.88,59.88,0,0,0-17,8.9,66.73,66.73,0,0,0-7.25,6.41,65.38,65.38,0,0,0-6,7.61,60.77,60.77,0,0,0-8.11,17.72,62.08,62.08,0,0,0-1.71,9.68,64.37,64.37,0,0,0-.31,9.71,73.91,73.91,0,0,0,11.65,36.87,74.8,74.8,0,0,0,47.81,32.87,76.89,76.89,0,0,0,9.92,1.4c3.28.23,6.55.29,9.84.22a93.36,93.36,0,0,0,38.19-9.54,95.1,95.1,0,0,0,49.69-60.19,97.13,97.13,0,0,0,3.24-20,114.26,114.26,0,0,0-.51-19.91,117.06,117.06,0,0,0-3.84-19.65,120.76,120.76,0,0,0-7.2-18.76,118.35,118.35,0,0,0-10.25-17.35,119.51,119.51,0,0,0-46.25-38.76,119.25,119.25,0,0,0-19.17-7.22,125.46,125.46,0,0,0-20.17-3.83c-3.44-.38-6.79-.56-10.12-.67s-6.7,0-10.06,0c-3.35.22-6.71.31-10,.74s-6.68.81-10,1.38a150.3,150.3,0,0,0-72.53,34.54,152.42,152.42,0,0,0-44.86,67.81c-1,3.3-2.06,6.6-2.83,10s-1.54,6.73-2.19,10.13-1.09,6.83-1.48,10.27-.7,6.92-.77,10.25a188,188,0,0,0,2.39,40.44,185.29,185.29,0,0,0,11.12,39.21,191,191,0,0,0,19.46,36,188.74,188.74,0,0,0,26.78,31.16,193.55,193.55,0,0,0,33,24.78,190.93,190.93,0,0,0,37.81,17.22,193.79,193.79,0,0,0,40.8,8.59c3.46.32,7,.69,10.31.77s6.77.37,10.17.33l10.19-.09,10.19-.59a239.66,239.66,0,0,0,40.36-6.73,231.48,231.48,0,0,0,38.75-13.63,240.54,240.54,0,0,0,95-77.81,242.75,242.75,0,0,0,21.39-35.78A233.92,233.92,0,0,0,1282,335.75a248.63,248.63,0,0,0,7.92-41.21c.3-3.47.71-7,.9-10.44l.43-10.2c.21-3.4.12-6.82.1-10.23s0-6.83-.18-10.24l-.6-10.24c-.14-3.42-.64-6.81-1-10.22s-.66-6.83-1.27-10.2l-1.64-10.16c-.56-3.39-1.37-6.73-2-10.09s-1.43-6.73-2.36-10l-2.65-10-3.13-9.83c-1-3.3-2.2-6.53-3.42-9.75s-2.33-6.49-3.71-9.64l-4.09-9.5c-1.34-3.18-3-6.23-4.44-9.34s-3-6.21-4.73-9.21l-5-9.07c-3.64-5.87-7.1-11.86-11.11-17.5-2-2.83-3.82-5.78-6-8.5l-6.26-8.29c-2.12-2.74-4.39-5.35-6.59-8s-4.46-5.31-6.84-7.84a296.65,296.65,0,0,0-30-28.91l-8.09-6.6c-2.76-2.13-5.58-4.17-8.38-6.25s-5.65-4.08-8.57-6-5.77-3.93-8.75-5.74l-9-5.4c-3-1.85-6.12-3.37-9.19-5.06-6.11-3.42-12.51-6.27-18.84-9.29a304,304,0,0,0-80.81-23.16c-7-1.13-14-1.65-21-2.3-3.51-.32-6.85-.35-10.29-.53l-10.25-.42L981-33.59c-3.43.05-6.86,0-10.28.17l-10.28.59c-3.42.23-6.86.35-10.27.78a373.36,373.36,0,0,0-80.8,16.83c-3.3,1-6.59,2.09-9.81,3.35l-9.72,3.63c-3.26,1.15-6.41,2.58-9.59,3.93L830.68-.19c-3.14,1.44-6.23,3-9.35,4.51S815.07,7.3,812,9l-9.11,5c-3,1.66-6.07,3.35-9,5.21A383.28,383.28,0,0,0,727.66,69.5c-2.59,2.34-5,4.9-7.44,7.34s-4.92,4.94-7.33,7.46l-7,7.77c-2.32,2.61-4.72,5.15-6.88,7.89l-6.64,8.11c-2.25,2.68-4.33,5.49-6.4,8.3l-6.24,8.45c-2.06,2.83-3.93,5.79-5.9,8.68a378.89,378.89,0,0,0-38.74,74.68A384.22,384.22,0,0,0,613.9,290c-.49,3.5-1,7-1.46,10.5l-1,10.54c-.28,3.49-.73,7.09-.85,10.49l-.44,10.27-.42,10.28c-.09,3.43,0,6.87,0,10.3l.1,10.31c0,3.44.18,6.87.39,10.31l.61,10.31c.23,3.43.34,6.88.78,10.3.75,6.85,1.47,13.71,2.3,20.56l3.29,20.46c.55,3.41,1.37,6.77,2,10.16l2.17,10.14a470.81,470.81,0,0,0,65.13,152.33c3.93,5.74,7.79,11.54,11.84,17.21L711,641.14c4.42,5.38,8.9,10.73,13.38,16.08,2.22,2.69,4.66,5.19,7,7.79l7.09,7.71a477.21,477.21,0,0,0,134.87,99.35l9.55,4.53c3.21,1.46,6.35,3.1,9.62,4.41q9.78,4.08,19.58,8.1l20,7.14c3.33,1.21,6.74,2.12,10.12,3.18l10.16,3.07a487.67,487.67,0,0,0,83.34,15.94l10.58,1c3.54.33,7.07.64,10.46.79l10.29.56,10.3.31c3.44.13,6.88.18,10.32.17s6.89,0,10.33,0c6.88-.15,13.78-.21,20.67-.6a580.3,580.3,0,0,0,162.73-31,588.07,588.07,0,0,0,148.21-76,594.41,594.41,0,0,0,207-260.58l3.94-9.86,3.72-9.95c1.26-3.32,2.43-6.66,3.57-10s2.33-6.7,3.41-10.07c4.4-13.49,8.27-27.14,11.76-40.9a604.1,604.1,0,0,0,14.63-83.84c.81-7,1.26-14.13,1.84-21.21.41-6.9.8-13.74,1.11-20.63l.31-10.33c.09-3.44.24-6.88.22-10.33l0-10.35c0-3.45,0-6.9-.09-10.35a738.11,738.11,0,0,0-6-82.73,712.92,712.92,0,0,0-15.49-81.79A734.06,734.06,0,0,0,1634.74-39a742,742,0,0,0-184.07-277.15,749.8,749.8,0,0,0-64.42-54.43c-5.58-4.31-11.36-8.34-17.06-12.49-2.84-2.08-5.78-4-8.68-6l-8.74-6-8.87-5.77c-3-1.92-5.9-3.88-8.92-5.7-6-3.69-12-7.48-18.12-11a746.4,746.4,0,0,0-322.4-100.64c-7.19-.63-13.94-.92-20.85-1.32L962.28-520l-10.34-.31-10.34-.29c-3.45-.11-6.91-.07-10.36-.1l-10.36,0c-3.46,0-6.91,0-10.37.11-27.64.39-55.33,2-82.91,5A917.44,917.44,0,0,0,664.22-483,909.67,909.67,0,0,0,509-420.85,930.94,930.94,0,0,0,65.46,69.43,941.09,941.09,0,0,0,18.23,233.29Q10.1,275.26,6,317.84c-.81,7.08-1.29,14.18-1.87,21.28-.27,3.54-.58,7.12-.81,10.62l-.58,10.33c-.35,6.89-.8,13.78-1.06,20.68l-.61,20.71c-.49,27.63-.34,55.33,1.21,83l.5,10.39.74,10.37c.52,6.92.94,13.85,1.57,20.76l2,20.72q.47,5.19,1.14,10.36l1.26,10.34,1.28,10.34c.4,3.46,1,6.88,1.46,10.32l3.08,20.64c2.4,13.69,4.62,27.44,7.48,41.07,2.6,13.68,5.77,27.24,8.85,40.83,1.63,6.77,3.37,13.52,5.07,20.28.87,3.37,1.67,6.77,2.6,10.13l2.8,10.07a1150,1150,0,0,0,135.17,305.74,1165.87,1165.87,0,0,0,502.41,439.28l9.69,4.43c3.24,1.47,6.52,2.83,9.78,4.25,6.53,2.79,13.05,5.64,19.62,8.35l19.8,7.93c3.3,1.34,6.61,2.63,10,3.85l10,3.72,10,3.71c3.33,1.27,6.71,2.35,10.07,3.54l20.21,6.91c13.58,4.28,27.12,8.73,40.85,12.55,13.66,4.08,27.47,7.58,41.27,11.18,6.92,1.71,13.87,3.3,20.8,4.94,3.48.8,7,1.64,10.42,2.41l10.47,2.2c27.88,6,56,10.72,84.28,14.66l21.21,2.76,21.27,2.26c3.54.36,7.09.76,10.64,1.08l10.65.85,10.66.85c3.52.25,7.19.61,10.58.76l20.68,1.14c6.9.37,13.79.8,20.71.94l20.73.61c3.46.08,6.91.23,10.37.25l10.38,0A1455.4,1455.4,0,0,0,1341,1574a1433.57,1433.57,0,0,0,164.67-27.79c13.63-2.94,27.11-6.54,40.65-9.91,6.79-1.65,13.48-3.61,20.21-5.46l20.17-5.63,20-6.1c6.67-2.07,13.38-4,20-6.29,13.25-4.43,26.57-8.67,39.67-13.53l19.73-7.11,19.56-7.55c13.09-5,25.95-10.42,38.87-15.79,6.49-2.64,12.86-5.52,19.25-8.36L1783,1452l19-9c6.31-3,12.68-5.94,18.9-9.15a1479.11,1479.11,0,0,0,146.09-83.12,1494.73,1494.73,0,0,0,135.7-99.73c2.74-2.21,5.42-4.47,8.09-6.76l8-6.84c5.33-4.58,10.73-9.1,16-13.76l15.72-14.07,7.85-7,7.71-7.21,15.38-14.47c2.59-2.39,5.08-4.88,7.59-7.34l7.52-7.41,7.52-7.42c2.51-2.48,5-4.94,7.46-7.49l14.7-15.18A1438.26,1438.26,0,0,0,2336,1007.14c17.16-22.47,33.38-45.67,49.27-69.11,3.92-5.9,7.75-11.85,11.62-17.78l5.78-8.92c1.95-3,3.83-6,5.68-9l11.15-18.1c1.84-3,3.75-6,5.52-9.09l5.37-9.18,10.7-18.39c3.48-6.19,6.88-12.41,10.31-18.63l5.13-9.33c1.73-3.1,3.38-6.24,5-9.39l9.82-18.91c1.62-3.16,3.31-6.29,4.86-9.48l4.69-9.57,9.34-19.16c3-6.43,6-12.91,8.94-19.37l4.44-9.7q2.25-4.83,4.33-9.75a1486.14,1486.14,0,0,0,59.42-160.17c1.1-3.39,2.1-6.81,3.08-10.24l3-10.27c2-6.85,4-13.7,5.89-20.57l5.42-20.7c1.8-6.91,3.66-13.8,5.23-20.76,3.23-13.89,6.68-27.76,9.47-41.75l4.35-21c1.39-7,2.61-14,3.91-21l1.92-10.54c.62-3.51,1.3-7,1.83-10.55l3.31-21.15,1.64-10.58c.55-3.53,1-7.07,1.45-10.61l2.76-21.23c1-7.07,1.67-14.17,2.43-21.27l2.22-21.29c.67-7.1,1.18-14.21,1.76-21.32l.84-10.67c.25-3.53.61-7.2.77-10.6a1803.33,1803.33,0,0,0-8.89-332.27A1778.83,1778.83,0,0,0,2549-441a1802,1802,0,0,0-130.89-308.91,1818.74,1818.74,0,0,0-186.3-280.21,1828.47,1828.47,0,0,0-235.57-242q-64.47-55-134-104t-143.54-91.24a1823.89,1823.89,0,0,0-310.59-140.91q-80.88-27.93-164.26-48.25t-168.19-32.73c-3.53-.56-7.06-1.09-10.61-1.53l-10.61-1.4-21.25-2.77-10.63-1.35-10.65-1.14-21.31-2.23c-14.2-1.62-28.43-2.61-42.66-3.76l-10.68-.84c-3.53-.25-7.19-.6-10.61-.78l-20.71-1.15-20.72-1.12c-6.9-.35-13.81-.81-20.73-.95L823-1709.55c-3.46-.08-6.92-.22-10.39-.25l-10.39,0-20.79-.09-20.8-.06c-3.47,0-6.94.06-10.4.13l-10.41.21A2230.95,2230.95,0,0,0,82.36-1599.43l-19.91,6.62-10,3.32c-3.31,1.12-6.65,2.19-9.93,3.4L3.05-1571.88c-3.29,1.19-6.59,2.36-9.87,3.59l-9.79,3.78-19.58,7.58-19.58,7.62c-6.49,2.62-12.94,5.34-19.41,8l-19.4,8.07c-6.46,2.72-13,5.34-19.34,8.24l-38.4,17.09c-3.21,1.41-6.4,2.86-9.56,4.38l-9.5,4.49-19,9c-6.32,3-12.69,6-19,9.09l-18.79,9.45-18.78,9.48-9.38,4.76-9.28,5-37.1,19.87c-24.43,13.78-49,27.41-72.94,42l-18.07,10.83c-3,1.79-6,3.65-9,5.53l-8.91,5.61-17.81,11.25-8.9,5.63c-3,1.88-5.95,3.75-8.86,5.71l-35.08,23.35c-2.91,2-5.88,3.86-8.74,5.89l-8.64,6-17.27,12.09a2284.11,2284.11,0,0,0-487.67,465.68q-51.93,67.17-99.11,138.06L-1126.82-659c-3.92,5.92-7.55,12-11.3,18l-11.17,18.13c-3.7,6.05-7.48,12.07-11.11,18.17l-10.74,18.39-10.73,18.41-5.35,9.22-5.15,9.32a2279.59,2279.59,0,0,0-144.11,309.47c-5,13.37-10,26.72-14.82,40.14l-13.92,40.49-3.46,10.13-3.25,10.2-6.46,20.41-6.43,20.44c-1.1,3.39-2.08,6.82-3.08,10.25l-3,10.29c-3.94,13.72-8,27.43-11.79,41.2l-10.85,41.46-2.7,10.37c-.87,3.47-1.66,7-2.49,10.42l-4.91,20.86-4.88,20.88q-1.26,5.22-2.32,10.46l-2.2,10.49c-2.92,14-5.86,28-8.7,42l-7.71,42.18c-2.68,14.05-4.74,28.19-7,42.31l-3.3,21.19c-.52,3.53-1.14,7.06-1.59,10.6l-1.4,10.62-5.53,42.53c-.5,3.54-.8,7.1-1.2,10.65l-1.13,10.65-2.24,21.32c-.71,7.11-1.52,14.21-2.15,21.33l-1.72,21.35-1.69,21.37c-.54,7.1-1.18,14.34-1.49,21.15a2867,2867,0,0,0-1.87,332.61c5.65,111.08,18.59,222,37.75,332l3.6,20.63,1.81,10.31c.61,3.43,1.34,6.85,2,10.27l8.2,41.08c1.4,6.84,2.71,13.7,4.18,20.52l4.6,20.44,9.25,40.89c.75,3.41,1.6,6.8,2.46,10.18l2.55,10.17,5.12,20.33,5.14,20.33,2.58,10.16,2.79,10.11,11.26,40.41,2.82,10.11c.94,3.37,1.88,6.74,2.93,10.07l6.1,20.08,12.29,40.14c4.33,13.3,8.78,26.57,13.18,39.86,8.6,26.66,18.35,52.9,27.81,79.27l3.57,9.88c1.16,3.3,2.49,6.54,3.73,9.82l7.58,19.59c5.08,13,10.09,26.14,15.28,39.16L-1267,1695l8.1,19.4c2.73,6.46,5.64,12.83,8.46,19.24l17.11,38.43c1.45,3.19,2.81,6.42,4.34,9.58l4.49,9.5,9,19,9,19c3,6.33,6,12.69,9.19,18.92l18.94,37.59c3.19,6.25,6.29,12.55,9.56,18.75l9.9,18.57,19.89,37.12c6.81,12.27,13.77,24.46,20.68,36.68s13.74,24.5,21,36.49l21.64,36.15,5.43,9c1.81,3,3.72,6,5.58,8.94l11.24,17.82,11.26,17.82,5.64,8.9c1.88,3,3.75,6,5.71,8.86l23.35,35.11,11.71,17.54,12.06,17.29,24.23,34.54q3,4.34,6.15,8.57l6.25,8.5,12.51,17,12.53,17,6.28,8.48,6.45,8.35c17.26,22.22,34.26,44.69,52.21,66.37,8.9,10.92,17.76,21.87,26.71,32.74l27.42,32.15,13.74,16.06c2.27,2.7,4.66,5.29,7,7.92l7,7.88,28.22,31.49c4.67,5.29,9.52,10.4,14.35,15.54l14.47,15.42,14.5,15.41,7.26,7.7c2.41,2.57,4.92,5,7.38,7.57l29.71,30.15,7.44,7.53c2.48,2.51,4.95,5,7.5,7.46l15.21,14.74,30.47,29.43,31.12,28.75,15.6,14.35c2.59,2.4,5.2,4.77,7.87,7.09l7.95,7,31.87,28,8,7,8.12,6.82,16.26,13.62,16.28,13.61,8.14,6.8c2.7,2.29,5.46,4.51,8.23,6.71a2931.94,2931.94,0,0,0,276,198.42,2933.88,2933.88,0,0,0,298.72,164.6c3.19,1.58,6.42,3.08,9.66,4.56l9.7,4.46,19.42,8.91,19.44,8.9,9.72,4.43,9.82,4.23,39.3,16.87,9.83,4.2c3.28,1.41,6.56,2.81,9.88,4.11l19.85,8L331.91,3246c13.33,5.07,26.72,10,40.1,15l20.07,7.43c3.36,1.22,6.68,2.52,10.06,3.67l10.12,3.49,40.51,13.91,10.14,3.47c3.37,1.18,6.77,2.26,10.18,3.33l20.42,6.47,40.88,12.88,41.16,11.93,20.61,5.92c3.44,1,6.85,2,10.32,2.9l10.36,2.73L658.32,3350l10.38,2.7q5.19,1.38,10.41,2.57l20.87,4.93,41.77,9.77c14,3,28,5.9,42,8.84,56,11.84,112.39,21.31,169,29.86,3.54.56,7.07,1.1,10.62,1.54l10.62,1.4,21.27,2.79,21.27,2.76,10.64,1.37c3.55.49,7.1.87,10.65,1.24l42.65,4.49,21.34,2.21c3.56.4,7.12.64,10.68.94l10.68.86,42.74,3.39,10.69.83c3.62.31,7,.42,10.45.64l20.72,1.15,41.47,2.26,20.74,1.08,20.77.64,41.56,1.21,20.79.58c3.46.12,6.93.19,10.4.18l10.4.06,41.62.17,20.82.06,10.41,0c3.47,0,6.94-.13,10.41-.19l41.65-.87,20.84-.46,10.42-.24c3.47-.08,6.94-.13,10.41-.32l83.33-3.91c27.76-1.89,55.52-3.93,83.29-6,3.47-.25,6.94-.51,10.4-.87l10.4-1,20.79-2,41.59-4.07q166.23-17.9,330.7-51.69a3501.41,3501.41,0,0,0,641-197.54,3536,3536,0,0,0,593.62-316.82,3566,3566,0,0,0,524.8-424.64,3573.38,3573.38,0,0,0,437.21-518.3,3566.16,3566.16,0,0,0,332.72-594.89Q4719.14,1160.1,4772.9,997q53.61-162.85,91.36-330.59,37.74-167.44,59.46-338l2.76-21.28c.89-7.1,1.9-14.19,2.59-21.3l4.51-42.66,4.42-42.69,3.44-42.75,3.35-42.77c.61-7.23,1-14,1.4-20.94l1.27-20.72,1.25-20.73,1-20.75c.64-13.83,1.39-27.66,1.93-41.51a4386.32,4386.32,0,0,0-23.48-666.16,4365.36,4365.36,0,0,0-125.35-658,4390.87,4390.87,0,0,0-225.18-633,4430.63,4430.63,0,0,0-319.88-592.7l-11.4-17.75-11.57-17.64-11.59-17.63-5.81-8.8-5.89-8.75-23.61-35-24-34.72q-48.36-69.19-99.19-136.7-51-67.35-104.43-132.89L3933.4-3002l-27.24-32.34c-9-10.82-18.33-21.42-27.53-32.11l-13.84-16c-4.62-5.33-9.32-10.58-14-15.87A4475.43,4475.43,0,0,0,3365.53-3571,4472.19,4472.19,0,0,0,2812-3966.22c-6.08-3.67-12.13-7.42-18.25-11l-18.35-10.86c-12.25-7.22-24.46-14.52-36.82-21.56l-37-21.23-37.26-20.82q-74.73-41.25-151-79.85-76.35-38.38-154.13-74t-157-68.11a4468.6,4468.6,0,0,0-651.92-211.21,4528,4528,0,0,0-677.33-109.67c-14.26-1.22-28.51-2.47-42.77-3.45l-42.77-3.1-41.45-2.54c-13.83-.82-27.64-1.74-41.48-2.35-27.68-1.3-55.35-2.82-83.06-3.67l-41.57-1.46-41.59-1c-55.47-1.35-111-1.5-166.56-1.22-13.89.13-27.78.38-41.67.58l-20.84.32-10.42.17-10.42.28-41.69,1.16c-7,.21-13.9.35-20.85.63l-20.84.84-41.69,1.7c-13.9.66-27.79,1.44-41.69,2.16l-20.84,1.12-10.42.57-10.42.68-41.67,2.74c-6.95.48-13.9.87-20.84,1.44l-20.83,1.62-41.65,3.29-41.63,3.76c-13.87,1.29-27.76,2.47-41.62,4-27.72,2.89-55.47,5.64-83.16,9l-41.55,4.88-41.5,5.35-20.76,2.7c-6.91.89-13.81,1.93-20.72,2.89l-41.45,5.89-10.36,1.49-10.35,1.6-20.69,3.2-20.7,3.21c-6.89,1.08-13.8,2.1-20.68,3.28q-165.36,27-329.17,63.9-163.63,37.2-325.07,84.14-161.23,47.27-319.65,104.09-158.19,57.14-313,123.63-154.53,66.8-305.1,142.68l-37.51,19.19-18.74,9.62-18.64,9.82-37.27,19.66-37.06,20.07c-24.76,13.29-49.21,27.15-73.76,40.83-6.15,3.41-12.24,6.9-18.33,10.4l-18.29,10.5-18.27,10.5c-6.1,3.5-12.19,7-18.23,10.59a5570.78,5570.78,0,0,0-1073.4,817l-15.17,14.79c-5.05,4.94-10.14,9.83-15.12,14.84l-30,29.92c-5,5-10,10-15,15l-14.83,15.14-29.64,30.3c-39.14,40.78-78,81.83-116,123.77l-14.27,15.69-7.13,7.86L-3686-2771l-28.2,31.71c-9.44,10.54-18.64,21.29-27.94,31.95s-18.59,21.35-27.77,32.11l-27.46,32.4-13.7,16.22-13.54,16.36-27.05,32.75-26.7,33.05-13.34,16.55c-4.46,5.5-8.79,11.1-13.19,16.65l-26.29,33.41c-4.4,5.55-8.7,11.18-13,16.8l-12.95,16.85-12.94,16.87-6.47,8.44-6.39,8.5c-17,22.7-34.1,45.31-50.73,68.29l-25,34.4-24.69,34.66q-98.64,138.78-188.45,283.91A5567,5567,0,0,0-4844.13-749.58q-52.48,163.33-94.5,329.94c-7.19,27.71-13.76,55.55-20.49,83.37-3.42,13.9-6.51,27.87-9.72,41.82l-9.52,41.87c-12.17,55.93-23.93,112-34.45,168.25C-5055.59,140.68-5084.18,368.35-5099.59,596.68Z"/></g><polygon class="cls-11" points="1513.36 191.94 1609.97 249.24 1565.72 714.46 1329.31 701.94 1513.36 191.94"/><image width="2339" height="2250" transform="translate(501.57 -77.64) scale(0.41)" xlink:href="../LOGO%20COMPRESS.png"/></g><g id="Layer_4" data-name="Layer 4"><polygon class="cls-12" points="406.04 667.37 364.99 1080 1534.28 1080 1566.36 742.67 406.04 667.37"/><g class="cls-13"><line class="cls-14" x1="1021.35" y1="996.53" x2="248.77" y2="925.68"/><line class="cls-14" x1="217.8" y1="619.99" x2="1030.73" y2="994.65"/><line class="cls-14" x1="705.17" y1="554.75" x2="1030.73" y2="994.65"/><line class="cls-14" x1="1025.32" y1="567.26" x2="1030.73" y2="994.65"/><line class="cls-14" x1="1394.29" y1="570.02" x2="1030.73" y2="994.65"/><line class="cls-14" x1="1768.08" y1="698.63" x2="1030.73" y2="994.65"/><line class="cls-14" x1="1768.08" y1="968.18" x2="1030.73" y2="994.65"/><line class="cls-14" x1="1522.91" y1="1199.55" x2="1030.73" y2="994.65"/><line class="cls-14" x1="1248.76" y1="1324.81" x2="1030.73" y2="994.65"/><line class="cls-14" x1="1028.92" y1="1360.45" x2="1021.35" y2="996.53"/><line class="cls-14" x1="771.86" y1="1315.43" x2="1021.35" y2="996.53"/><line class="cls-14" x1="612.41" y1="1191.62" x2="1021.35" y2="996.53"/><line class="cls-14" x1="224.08" y1="1143.96" x2="1028.92" y2="985.44"/></g></g><g id="Layer_8" data-name="Layer 8"><polygon class="cls-3" points="1248.76 0 1920 397.56 1920 -1.95 1248.76 0"/><g class="cls-15"><line class="cls-16" x1="1648.37" y1="234.76" x2="1450.7" y2="-80.44"/><line class="cls-16" x1="1870.97" y1="-27.21" x2="1648.37" y2="234.76"/><line class="cls-16" x1="1666.18" y1="-91.12" x2="1648.37" y2="234.76"/><line class="cls-16" x1="1960.01" y1="140.38" x2="1648.37" y2="234.76"/><line class="cls-16" x1="2000.97" y1="332.71" x2="1648.37" y2="234.76"/><image width="5749" height="3639" transform="matrix(0.21, 0.12, -0.12, 0.21, 1207.66, -784.54)" xlink:href="../awan%202.png"/></g></g><g id="Layer_2" data-name="Layer 2"><line class="cls-17" x1="411.02" y1="640.47" x2="1569.04" y2="714.46"/><line class="cls-17" x1="406.04" y1="667.37" x2="1566.36" y2="742.67"/><line class="cls-17" x1="474.74" x2="411.02" y2="640.47"/><line class="cls-17" x1="448.17" y1="-0.32" x2="384.59" y2="638.79"/><line class="cls-17" x1="1642.9" y1="264.99" x2="1598" y2="716.31"/><line class="cls-17" x1="1613.29" y1="249.24" x2="1569.04" y2="714.46"/><line class="cls-17" x1="1220.36" y1="-16.82" x2="1933.82" y2="405.75"/><line class="cls-17" x1="1566.36" y1="742.67" x2="1521.93" y2="1209.77"/><line class="cls-17" x1="1595.29" y1="744.88" x2="1558.62" y2="1130.4"/><line class="cls-17" x1="406.04" y1="667.37" x2="298.6" y2="1747.37"/><line class="cls-17" x1="379.23" y1="669.42" x2="271.8" y2="1749.42"/><line class="cls-17" x1="388.59" y1="639.04" x2="-207.7" y2="600.95"/><line class="cls-17" x1="382.88" y1="665.57" x2="-213.42" y2="627.47"/><line class="cls-17" x1="1928.01" y1="432.93" x2="1642.9" y2="264.99"/><line class="cls-17" x1="1613.29" y1="249.24" x2="1189.74" y2="-1.95"/><line class="cls-17" x1="1933.21" y1="767.15" x2="1595.29" y2="744.88"/><line class="cls-17" x1="1598" y1="716.31" x2="1938.16" y2="738.38"/><line class="cls-17" x1="248.77" y1="630.11" x2="437.05" y2="111.44"/><line class="cls-17" x1="448.17" y1="2.31" x2="220.91" y2="628.33"/></g><g id="Layer_5" data-name="Layer 5"><g id="Layer_6" data-name="Layer 6"><polygon class="cls-6" points="1481.92 175.68 1513.36 194.11 1329.31 699.14 1290.61 691.11 1481.92 175.68"/><line class="cls-18" x1="1329.31" y1="702.07" x2="1512.74" y2="192.9"/><line class="cls-18" x1="1481.49" y1="172.23" x2="1290.61" y2="702.07"/></g><use transform="matrix(-0.23, -0.02, 0.02, -0.22, 1801.35, 1339.49)" xlink:href="#image-2"/><use transform="matrix(0.23, 0.03, -0.03, 0.22, 1235.87, 245.26)" xlink:href="#image-2"/><image width="3269" height="2064" transform="translate(1688.72 1164.03) rotate(176.83) scale(0.38)" xlink:href="../pow.png"/></g></svg>